<?xml version="1.0" standalone="no"?>
<!DOCTYPE svg PUBLIC "-//W3C//DTD SVG 1.1//EN" "http://www.w3.org/Graphics/SVG/1.1/DTD/svg11.dtd" >
<svg xmlns="http://www.w3.org/2000/svg">
<metadata></metadata>
<defs>
<font id="NNMedienBold" horiz-adv-x="590" >
<font-face units-per-em="1000" ascent="818" descent="-182" />
<missing-glyph horiz-adv-x="220" />
<glyph unicode="&#xfb01;" horiz-adv-x="616" d="M12 444v113h78v19q5 55 27 94.5t50.5 61t71.5 34t81 16t88 3.5q64 0 130 -7l-6 -124q-70 7 -119 7h-13q-25 0 -37.5 -0.5t-34.5 -2.5t-34 -7.5t-25.5 -14.5t-19.5 -24.5t-6 -36.5v-18h306v-557h-149v444h-157v-444h-153v444h-78z" />
<glyph unicode="&#xfb02;" horiz-adv-x="661" d="M12 441v114h91v21q0 199 243 199q89 0 195 -13h48v-762h-145v652q-64 4 -105 4q-96 -4 -96 -81v-20h116v-114h-116v-441h-140v441h-91z" />
<glyph unicode="&#xfb03;" horiz-adv-x="956" d="M12 451v104h91v21q0 96 53 147.5t160 51.5q25 0 52 -3l-11 -118q-30 2 -48 1q-66 -3 -66 -80v-20h199v21q5 55 27 94.5t50.5 61t71.5 34t81 16t88 3.5q64 0 130 -7l-6 -124q-70 7 -119 7h-13q-25 0 -37.5 -0.5t-34.5 -2.5t-34 -7.5t-25.5 -14.5t-19.5 -24.5t-6 -36.5v-18 h306v-557h-149v444h-157v-444h-153v450l-199 1v-451h-140v451h-91z" />
<glyph unicode="&#xfb04;" horiz-adv-x="1001" d="M12 451v104h91v21q0 96 53 147.5t160 51.5q25 0 52 -3l-11 -118q-30 2 -48 1q-66 -3 -66 -80v-20h200v21q0 199 243 199q89 0 195 -13h48v-762h-145v652q-64 4 -105 4q-96 -4 -96 -81v-20h116v-104h-116v-451h-140v451h-200v-451h-140v451h-91z" />
<glyph horiz-adv-x="0" />
<glyph horiz-adv-x="1000" />
<glyph unicode=" "  horiz-adv-x="220" />
<glyph unicode="&#x09;" horiz-adv-x="220" />
<glyph unicode="&#xa0;" horiz-adv-x="220" />
<glyph unicode="!" horiz-adv-x="345" d="M80 70q0 38 27.5 65.5t65.5 27.5t65.5 -27.5t27.5 -65.5t-27.5 -65t-65.5 -27t-65.5 27t-27.5 65zM95 759h157l-17 -510h-124z" />
<glyph unicode="&#x22;" horiz-adv-x="450" d="M45 769h140l-20 -290h-100zM265 769h140l-20 -290h-100z" />
<glyph unicode="#" horiz-adv-x="703" d="M45 158v73h133v157h-133v73h132v164h94l-1 -164h170l1 164h87v-164h130v-73h-130v-157h130v-73h-130l1 -159h-90v159h-170v-159h-90l-1 159h-133zM269 231h170l1 157h-170z" />
<glyph unicode="$" d="M43 24l28 129q74 -16 138 -25v200q-89 45 -127.5 91.5t-36.5 121.5q2 76 72 130.5t188 58.5v94h84v-96q77 -6 146 -23l-26 -130q-66 10 -120 17v-202q84 -48 120.5 -93.5t35.5 -106.5q-2 -55 -26.5 -96t-63.5 -63t-79.5 -32t-82.5 -10v-101l-84 1v105q-83 6 -166 30z M193 537q0 -32 20.5 -50.5t85.5 -48.5l6 -3v163q-43 0 -77.5 -14t-34.5 -47zM293 121q101 3 101 71q2 47 -99 95z" />
<glyph unicode="%" horiz-adv-x="714" d="M35 558q0 72 42.5 119.5t119.5 48.5q77 0 119 -47.5t42 -120.5q0 -74 -40 -123.5t-121 -49.5q-79 1 -120.5 50.5t-41.5 122.5zM56 103l559 561l47 -49l-559 -560zM138 558q0 -81 61 -81q60 1 60 81q0 82 -62 82q-59 0 -59 -82zM356 162q0 72 42.5 119.5t119.5 48.5 q77 0 119 -47.5t42 -120.5q0 -74 -40 -123.5t-121 -49.5q-79 1 -120.5 50.5t-41.5 122.5zM459 162q0 -81 61 -81q60 1 60 81q0 82 -62 82q-59 0 -59 -82z" />
<glyph unicode="&#x26;" horiz-adv-x="739" d="M46 202q-2 115 115 185q-90 63 -86 170q4 78 59.5 121t146.5 42q95 -1 146 -49t48 -122q-7 -109 -122 -179l133 -121q43 60 80 158l122 -50q-15 -47 -41.5 -96t-46.5 -75l-19 -26l175 -160h-189l-70 66q-81 -73 -193 -75q-113 -1 -185 52.5t-73 158.5zM183 209 q1 -42 36.5 -64.5t81.5 -24.5q69 0 106 33l-165 157q-64 -40 -59 -101zM208 545q5 -49 62 -97q68 43 68 99q1 26 -17 39.5t-44 13.5q-32 0 -51.5 -15.5t-17.5 -39.5z" />
<glyph unicode="'" horiz-adv-x="220" d="M35 769h140l-20 -290h-100z" />
<glyph unicode="(" horiz-adv-x="328" d="M5 325q0 124 45 259.5t129 219.5h139q-88 -70 -144.5 -206t-56.5 -267q0 -130 51.5 -257t131.5 -198h-139q-76 86 -116 210t-40 239z" />
<glyph unicode=")" horiz-adv-x="328" d="M10 804h139q84 -84 129 -219.5t45 -259.5q0 -115 -40 -239t-116 -210h-139q80 71 131.5 198t51.5 257q0 131 -56.5 267t-144.5 206z" />
<glyph unicode="*" horiz-adv-x="633" d="M65 623l36 110l166 -67l-6 179h116l-13 -178l169 60l35 -109l-173 -44l109 -142l-93 -67l-95 151l79 58l-31 93l-97 -1l-30 -93l79 -57l-101 -148l-93 68l115 137z" />
<glyph unicode="+" d="M34 260v107h205v207h111v-207h205v-107h-205v-207h-111v207h-205z" />
<glyph unicode="," horiz-adv-x="317" d="M49 -154q56 117 31 228q-6 42 12.5 69t53.5 31q41 4 66.5 -21t24.5 -68q-4 -132 -129 -267z" />
<glyph unicode="-" horiz-adv-x="510" d="M75 260v102h360v-102h-360z" />
<glyph unicode="." horiz-adv-x="362" d="M80 70q0 41 29.5 71t71.5 30q41 0 71 -30t30 -71q0 -42 -30 -71.5t-71 -29.5q-42 0 -71.5 29.5t-29.5 71.5z" />
<glyph unicode="/" horiz-adv-x="487" d="M15 -90l307 851l130 1l-307 -851z" />
<glyph unicode="0" d="M19 345q0 160 69.5 263t208.5 104q75 -1 130 -29.5t86 -80.5t45 -115.5t14 -141.5q0 -160 -71.5 -260t-206.5 -101q-136 1 -205.5 100.5t-69.5 260.5zM180 345q0 -45 5.5 -84t18 -74t35.5 -56t55 -22q43 0 71 37.5t38.5 88t10.5 110.5q0 61 -9.5 111.5t-37.5 89.5t-71 40 q-33 -1 -56.5 -22.5t-36 -58t-18 -76t-5.5 -84.5z" />
<glyph unicode="1" d="M69 589l209 117h124v-574h119v-132h-404v132h133v408l-118 -64z" />
<glyph unicode="2" d="M62 0v111q178 170 227 227q79 93 79 160q0 40 -29.5 61t-80.5 21q-71 0 -163 -19l-21 133q112 20 183 21q70 1 123.5 -15.5t83 -46.5t44 -65t14.5 -75q0 -73 -39 -141.5t-126 -155.5q-36 -36 -93 -78h264v-138h-466z" />
<glyph unicode="3" d="M61 15l28 124q86 -19 165 -21q124 -3 125 82q0 18 -5.5 34t-22 33t-54.5 26.5t-94 8.5h-44v126l44 -1q89 2 119.5 29t30.5 68q0 62 -111 62q-60 0 -153 -19l-21 126q96 23 173 24q136 3 201 -50.5t63 -137.5q0 -50 -27 -92.5t-83 -64.5q139 -51 133 -181q-1 -38 -14 -71 t-42 -64.5t-85 -49.5t-134 -17q-87 1 -192 26z" />
<glyph unicode="4" d="M21 187v100l278 428l174 -1v-412h106v-115h-106v-187h-139v187h-313zM169 299h167v272z" />
<glyph unicode="5" d="M70 17l30 133q92 -24 186 -24q31 0 52.5 9.5t29.5 25t11 26t3 20.5q0 52 -37 76t-117 24h-123v399h404v-141h-268v-139q124 18 210 -38.5t86 -168.5q0 -109 -63.5 -169t-193.5 -61q-99 -1 -210 28z" />
<glyph unicode="6" d="M40 315q1 58 10.5 111t34 107.5t62 94t98 64.5t138.5 25q74 0 140 -17l-25 -123q-59 16 -118 16q-91 -1 -139 -59.5t-50 -137.5q44 39 136 39q110 0 169 -61t59 -157q0 -101 -66 -165.5t-181 -64.5q-54 0 -97.5 15t-71 37t-47.5 55.5t-29.5 61.5t-15 63.5t-6.5 54 t-1 41.5zM193 269q-2 -157 115 -157q50 0 75 28.5t25 76.5q0 45 -21.5 71.5t-65.5 26.5q-83 0 -128 -46z" />
<glyph unicode="7" d="M49 581v134h482v-120l-248 -596h-157l254 582h-331z" />
<glyph unicode="8" d="M50 185q-2 49 29.5 98t92.5 73q-54 23 -82.5 68.5t-28.5 105.5t35.5 104.5t87 64.5t108.5 20q117 0 174.5 -57.5t56.5 -130.5q-1 -109 -110 -160q57 -24 92.5 -72t33.5 -118q-2 -33 -14 -63t-38.5 -60.5t-77.5 -48.5t-121 -18q-57 1 -100.5 15t-68.5 34t-41 47t-21.5 50 t-6.5 48zM186 192q2 -42 32.5 -63t73.5 -21q104 0 111 87q2 47 -36.5 77.5t-85.5 37.5q-52 -15 -75 -48.5t-20 -69.5zM196 525q0 -30 22.5 -62t81.5 -50q44 17 64 46.5t20 60.5q0 42 -26 62.5t-66 20.5t-68 -19.5t-28 -58.5z" />
<glyph unicode="9" d="M37 494q7 109 77.5 168.5t180.5 53.5q258 -12 254 -346q-7 -374 -290 -380q-100 -2 -167 20l18 118q85 -12 128 -11q75 3 111.5 43.5t44.5 130.5q-52 -40 -142 -34q-103 4 -161.5 73t-53.5 164zM186 486q-2 -45 21 -78t67 -34q78 -3 125 40q2 23 -0.5 48t-12 55.5 t-34.5 51t-63 22.5q-52 2 -75.5 -23.5t-27.5 -81.5z" />
<glyph unicode=":" horiz-adv-x="384" d="M90 490q0 41 29.5 71t71.5 30q41 0 71 -30t30 -71q0 -42 -30 -71.5t-71 -29.5q-42 0 -71.5 29.5t-29.5 71.5zM92 70q0 41 29.5 71t71.5 30q41 0 71 -30t30 -71q0 -42 -30 -71.5t-71 -29.5q-42 0 -71.5 29.5t-29.5 71.5z" />
<glyph unicode=";" horiz-adv-x="382" d="M87 -154q56 117 31 228q-6 42 12.5 69t53.5 31q41 4 66.5 -21t24.5 -68q-4 -132 -129 -267zM90 490q0 41 29.5 71t71.5 30q41 0 71 -30t30 -71q0 -42 -30 -71.5t-71 -29.5q-42 0 -71.5 29.5t-29.5 71.5z" />
<glyph unicode="&#x3c;" d="M50 270v83l490 227v-118l-332 -150l332 -154v-116z" />
<glyph unicode="=" d="M35 147v106h522v-106h-522zM35 371v106h522v-106h-522z" />
<glyph unicode="&#x3e;" d="M50 42v116l332 154l-332 150v118l490 -227v-83z" />
<glyph unicode="?" horiz-adv-x="492" d="M33 692q114 25 187 26q65 2 115 -16.5t77.5 -48.5t41 -62t13.5 -63q0 -78 -50 -131.5t-117 -72.5l-5 -81h-129l-6 151q83 28 121 55t37 76q-1 34 -28 50.5t-69 16.5q-71 0 -166 -21zM140 70q0 39 28 67.5t68 28.5q39 0 67.5 -28.5t28.5 -67.5q0 -40 -28.5 -68t-67.5 -28 q-40 0 -68 28t-28 68z" />
<glyph unicode="@" horiz-adv-x="860" d="M80 317q0 99 39.5 181.5t123.5 136.5t200 54q86 0 153 -27.5t105.5 -73.5t57.5 -100t18 -113q0 -62 -20.5 -108.5t-55 -72.5t-73.5 -39.5t-83 -15.5l-113 -2q-71 0 -112.5 34.5t-41.5 91.5q0 58 38.5 85.5t96.5 30.5l67 4v37q0 30 -59 30q-30 0 -91 -17l-23 72 q57 24 114 24q42 0 71 -9t43.5 -20.5t22 -30.5t8.5 -30t1 -29v-190q119 7 119 155q1 29 -5 58t-22.5 62t-43 57.5t-72 41t-103.5 16.5q-59 0 -106 -18t-76.5 -46.5t-49 -67.5t-27 -78.5t-7.5 -81.5q0 -129 80 -203t199 -80q116 0 196 50l42 -69q-104 -73 -253 -65 q-161 9 -259.5 105t-98.5 261zM363 262q0 -22 16 -33.5t39 -11.5h62v94q-8 0 -26.5 -1t-25.5 -1q-28 0 -46.5 -12t-18.5 -35z" />
<glyph unicode="A" horiz-adv-x="706" d="M4 0l264 728h162l272 -728h-157l-55 163h-280l-52 -163h-154zM254 298h190l-97 286z" />
<glyph unicode="B" horiz-adv-x="649" d="M82 0v726l240 2h9q106 0 173 -48q70 -50 70 -145q0 -48 -28 -91t-79 -62q56 -20 90 -67t34 -107q0 -103 -68 -156t-196 -53zM226 120h74q78 0 110 23t32 77q0 48 -30 72.5t-103 24.5h-83v-197zM226 438h79q61 0 95 23q34 22 33 64q0 49 -33 66q-30 16 -96 16h-8 q-5 1 -31 1h-16q-14 0 -23 -1v-169z" />
<glyph unicode="C" horiz-adv-x="656" d="M52 356q0 164 97 271t271 107q100 0 193 -30l-39 -130q-88 24 -158 24q-59 0 -101.5 -21t-65.5 -57.5t-33 -76.5t-10 -87q0 -65 19 -115.5t65.5 -84.5t116.5 -35h6q81 0 172 26l29 -125q-96 -35 -207 -35q-179 0 -267 99.5t-88 269.5z" />
<glyph unicode="D" horiz-adv-x="734" d="M82 0v724q96 4 221 4q186 0 282.5 -96.5t96.5 -269.5q0 -166 -97.5 -265t-272.5 -99q-66 0 -230 2zM232 125h56q118 0 181.5 59.5t63.5 177.5q0 127 -66.5 182.5t-192.5 55.5q-25 0 -42 -1v-474z" />
<glyph unicode="E" horiz-adv-x="602" d="M82 0v728h465v-131h-313v-150h281v-135h-281v-177h313v-135h-465z" />
<glyph unicode="F" horiz-adv-x="589" d="M82 0v727h465v-135h-310v-161h282v-131h-282v-300h-155z" />
<glyph unicode="G" horiz-adv-x="726" d="M52 356q0 163 104 270.5t284 107.5q104 0 213 -26l-34 -133q-83 22 -180 22q-117 0 -175 -71.5t-58 -169.5q0 -99 59.5 -167t170.5 -68q41 0 84 8v171h-143v128h284v-401q-100 -37 -225 -37q-183 0 -283.5 102t-100.5 264z" />
<glyph unicode="H" horiz-adv-x="739" d="M82 0v728h149v-283h277v283h149v-728h-149v305h-277v-305h-149z" />
<glyph unicode="I" horiz-adv-x="445" d="M62 0v116h87v495h-85v117h317v-117h-82v-495h84v-116h-321z" />
<glyph unicode="J" horiz-adv-x="465" d="M41 -1l18 131q56 -6 82 -6q65 0 83 28.5t18 103.5v472h151v-491q0 -128 -54 -188t-189 -60q-49 0 -109 10z" />
<glyph unicode="K" horiz-adv-x="670" d="M82 0v728h151v-292l235 292h191l-252 -313l276 -415h-182l-201 310l-67 -83v-227h-151z" />
<glyph unicode="L" horiz-adv-x="569" d="M82 0v728h155v-589h300v-139h-455z" />
<glyph unicode="M" horiz-adv-x="965" d="M72 0l56 728h168l187 -493l185 493h167l58 -728h-158l-25 456l-172 -456h-112l-174 458l-24 -458h-156z" />
<glyph unicode="N" horiz-adv-x="795" d="M86 0v728h145l331 -472v472h147v-728h-149l-327 469v-469h-147z" />
<glyph unicode="O" horiz-adv-x="804" d="M52 356q0 78 22 146t64 121t110 84t155 31q86 0 154 -31t109.5 -84.5t63.5 -121.5t22 -145q0 -160 -94 -267t-255 -107t-256 107t-95 267zM206 356q0 -101 51 -171t145 -70q93 0 144.5 70t51.5 171q0 107 -51 179.5t-145 72.5q-98 0 -147 -73t-49 -179z" />
<glyph unicode="P" horiz-adv-x="634" d="M82 0v726h124t104 1h9q125 0 197 -56q75 -57 75 -172q0 -127 -76 -189q-75 -62 -196 -62h-82v-248h-155zM237 377h73q75 0 104.5 31t29.5 83q0 60 -31 82.5t-103 22.5h-32q-9 0 -17 1q-15 0 -24 -1v-219z" />
<glyph unicode="Q" horiz-adv-x="847" d="M59 361q0 78 22 146t64 121t110 84t155 31q86 0 154 -31t109.5 -84.5t63.5 -121.5t22 -145q0 -115 -50.5 -206t-142.5 -135q41 -50 110 -68q61 -17 166 -17h23v-129h-25q-60 0 -105 4q-54 5 -114 22t-109 56t-88 100q-3 0 -7.5 -0.5t-6.5 -0.5q-161 0 -256 107t-95 267z M213 361q0 -101 51 -171t145 -70q93 0 144.5 70t51.5 171q0 107 -51 179.5t-145 72.5q-98 0 -147 -73t-49 -179z" />
<glyph unicode="R" horiz-adv-x="680" d="M82 0v726h120.5t101.5 1h12q120 -1 194 -57q76 -60 76 -171q0 -155 -128 -218l190 -281h-176l-155 251h-88v-251h-147zM229 375h75q135 0 135 119q0 107 -133 107h-2h-75v-226z" />
<glyph unicode="S" horiz-adv-x="579" d="M50 29l37 127q110 -32 189 -32q89 0 95 62v6q-1 25 -33 52q-36 30 -121 72q-163 82 -164 209q0 34 10 66.5t34 66t74 54t119 20.5q92 0 213 -34l-32 -132q-118 28 -183 29h-7q-37 1 -55 -9q-20 -10 -26 -39q-2 -9 0 -17t7.5 -16.5t11.5 -15.5t17 -14.5t20 -13.5t23 -13.5 t23 -12l25 -12.5t23 -12q94 -48 136 -102q42 -52 42 -129q0 -37 -12 -71q-10 -31 -35.5 -62t-78.5 -49t-128 -18q-50 0 -114 11.5t-110 28.5z" />
<glyph unicode="T" d="M22 588v138h546v-138h-195v-588h-159v588h-192z" />
<glyph unicode="U" horiz-adv-x="725" d="M68 269v459h150v-437q0 -170 154 -170q72 0 102 39t30 131v437h153v-459q0 -280 -284 -280q-147 0 -226 73t-79 207z" />
<glyph unicode="V" horiz-adv-x="719" d="M12 728h169l176 -526l179 526h171l-273 -734h-154z" />
<glyph unicode="W" horiz-adv-x="975" d="M12 728h165l105 -509l127 509h158l130 -506q18 83 51.5 257t49.5 249h165l-184 -728h-162l-130 498l-129 -498h-162z" />
<glyph unicode="X" horiz-adv-x="705" d="M7 0l253 375l-226 353h186l130 -224l136 224h188l-234 -342l256 -386h-182l-160 253l-158 -253h-189z" />
<glyph unicode="Y" horiz-adv-x="652" d="M4 728h165l157 -319l156 319h166l-247 -468v-260h-154v262z" />
<glyph unicode="Z" horiz-adv-x="639" d="M47 0v116l346 471h-320v139h519v-113l-350 -476h345v-137h-540z" />
<glyph unicode="[" horiz-adv-x="280" d="M5 -138v916h260v-98h-144v-719h144v-99h-260z" />
<glyph unicode="\" horiz-adv-x="474" d="M21 762l130 -1l307 -851l-130 1z" />
<glyph unicode="]" horiz-adv-x="280" d="M15 -39h143v719h-143v98h260v-916h-260v99z" />
<glyph unicode="^" horiz-adv-x="833" />
<glyph unicode="_" horiz-adv-x="600" d="M55 -38h490v-86h-490v86z" />
<glyph unicode="`" horiz-adv-x="370" d="M45 849h159l121 -212l-133 -1z" />
<glyph unicode="a" horiz-adv-x="601" d="M39 150v9q1 89 59 133q62 46 147 49l109 5q0 26 -1 36q-4 44 -23 55.5t-73 11.5q-45 0 -167 -20l-17 123q96 24 184 25h8q62 -1 107 -15q48 -16 71.5 -35.5t36.5 -51t15 -49.5t2 -42v-200q1 -35 16.5 -48.5t47.5 -15.5l-12 -123h-8q-116 0 -158 57q-46 -59 -133 -64h-15 q-85 0 -137 42q-57 46 -59 118zM187 160q1 -25 23 -38q21 -12 53 -12h5q53 1 92 32v93q-14 0 -47.5 -2t-48.5 -3q-45 -3 -61 -21.5t-16 -48.5z" />
<glyph unicode="b" horiz-adv-x="623" d="M77 19v744h145v-219q39 31 107 33h6q116 0 180 -82q66 -84 66 -209q0 -126 -69 -211.5t-206 -85.5q-92 0 -229 30zM222 122q41 -5 80 -5q73 0 106 42.5t33 126.5q0 69 -33 114t-100 45q-40 0 -86 -25v-298z" />
<glyph unicode="c" horiz-adv-x="519" d="M42 286q2 124 83.5 206.5t215.5 82.5q78 0 145 -21l-25 -127q-63 13 -109 13h-6q-68 -2 -112.5 -43.5t-45.5 -110.5q0 -76 38 -122q38 -45 121 -44h4q52 0 118 13l15 -127q-60 -19 -133 -19q-88 0 -150 22.5t-96 65t-48.5 94t-14.5 117.5z" />
<glyph unicode="d" horiz-adv-x="635" d="M43 280q1 57 16 107.5t45.5 94t83.5 69t123 26.5q54 0 98 -21v202h149v-758h-149v41q-57 -50 -132 -50q-98 0 -167 79q-67 77 -67 203v7zM190 280v-15q0 -64 30 -102q34 -42 89.5 -42t99.5 36v273q-41 17 -87 17q-124 0 -132 -167z" />
<glyph unicode="e" horiz-adv-x="580" d="M42 285q0 58 14 107.5t43.5 91.5t82 66t123.5 24q222 0 222 -263v-16l-3 -59h-334q2 -122 146 -122q63 0 161 19l19 -121q-81 -26 -189 -26q-285 0 -285 299zM194 345h196q-1 115 -91 117h-3q-46 0 -70 -30q-26 -31 -32 -87z" />
<glyph unicode="f" horiz-adv-x="420" d="M12 441v114h91v21q0 96 53 147.5t160 51.5q41 0 112 -10l-11 -118q-63 8 -96 8h-12q-66 -3 -66 -80v-20h146v-114h-146v-441h-140v441h-91z" />
<glyph unicode="g" horiz-adv-x="613" d="M34 306q0 120 72 195t197 75q109 0 236 -25v-504q0 -112 -58.5 -172.5t-174.5 -62.5h-18q-39 0 -88 6q-62 9 -105 23l24 121q97 -23 176 -24h3q56 0 76 31q21 32 21 97v29q-37 -33 -110 -33q-114 0 -182.5 65.5t-68.5 178.5zM184 306q0 -127 117 -127q51 0 92 24v240 q-48 9 -91 9q-55 0 -86.5 -39t-31.5 -107z" />
<glyph unicode="h" horiz-adv-x="648" d="M77 0v762h150v-247q25 26 66 43.5t84 18.5h9q36 0 64 -7q32 -8 52.5 -20.5t35 -32.5t22 -37t11.5 -42.5t4.5 -40.5t0.5 -38v-359h-151v341q0 64 -14 85t-49 21q-71 0 -135 -54v-393h-150z" />
<glyph unicode="i" horiz-adv-x="316" d="M67 741q0 37 26.5 64t64.5 27t64.5 -27t26.5 -64t-26.5 -64t-64.5 -27t-64.5 27t-26.5 64zM82 0v560h149v-560h-149z" />
<glyph unicode="j" horiz-adv-x="335" d="M-38 -183l12 129q20 -1 38 -1h17q47 2 59.5 31.5t12.5 105.5v478h149v-554q0 -193 -220 -193q-33 0 -68 4zM89 741q0 37 26.5 64t64.5 27t64.5 -27t26.5 -64t-26.5 -64t-64.5 -27t-64.5 27t-26.5 64z" />
<glyph unicode="k" horiz-adv-x="581" d="M77 0v762h145v-409l166 212h182l-198 -239l215 -326h-180l-136 229l-49 -61v-168h-145z" />
<glyph unicode="l" horiz-adv-x="289" d="M72 0v762h145v-762h-145z" />
<glyph unicode="m" horiz-adv-x="938" d="M77 0v565h150v-50q20 25 58 43t76 19h3q104 0 149 -74q33 38 79.5 55.5t87.5 18.5h8q32 0 59 -7q30 -8 49 -20.5t32.5 -32.5t20.5 -37.5t11 -42.5t4.5 -40.5t0.5 -37.5v-359h-151v341q0 64 -14 85t-49 21q-49 0 -105 -54v-393h-151v341q0 64 -14 85t-49 21 q-49 0 -105 -54v-393h-150z" />
<glyph unicode="n" horiz-adv-x="648" d="M77 0v565h150v-50q68 61 150 62h9q36 0 64 -7q32 -8 52.5 -20.5t35 -32.5t22 -37t11.5 -42.5t4.5 -40.5t0.5 -38v-359h-151v341q0 64 -14 85t-49 21q-71 0 -135 -54v-393h-150z" />
<glyph unicode="o" horiz-adv-x="646" d="M42 281q0 81 29 146t94 106.5t158 42.5q138 -1 209.5 -85t71.5 -210q0 -59 -15.5 -109t-47.5 -91.5t-88 -65.5t-130 -25q-73 1 -128.5 25t-88 65.5t-48.5 92t-16 108.5zM186 281q0 -73 38 -118t99 -45q68 0 102 44q33 43 33 115q0 73 -34 123q-34 48 -101 48 q-64 0 -100.5 -50t-36.5 -117z" />
<glyph unicode="p" horiz-adv-x="642" d="M77 -189v754h150v-49q17 21 54.5 40.5t87.5 19.5q113 0 172 -76q58 -76 58 -204q0 -60 -15 -111t-45.5 -96t-85.5 -72t-127 -28h-8q-43 0 -91 9v-187h-150zM227 127q43 -9 79 -9q69 0 106 47t42 127v18q0 140 -119 140q-27 0 -58 -16t-50 -37v-270z" />
<glyph unicode="q" horiz-adv-x="629" d="M42 279q0 128 71 212.5t203 84.5q103 0 236 -26v-729h-155v214q-17 -20 -51.5 -32.5t-62.5 -13.5h-5q-111 0 -172 80q-64 82 -64 210zM196 279q0 -159 118 -159q48 0 83 33v286q-39 7 -82 7q-119 0 -119 -167z" />
<glyph unicode="r" horiz-adv-x="454" d="M77 0v565h150v-51q45 53 120 56h11q50 0 90 -16l-22 -125q-40 6 -77 6q-79 0 -122 -55v-380h-150z" />
<glyph unicode="s" horiz-adv-x="503" d="M46 18l28 124q102 -26 163 -26q33 0 51 8q19 8 18 35q0 23 -23 37q-24 16 -93 45q-68 28 -104 70q-32 38 -31 98v14q1 28 11 53t32 50t64 39q37 12 87 12h14q89 -2 168 -25l-24 -122q-84 21 -148 23h-3q-57 0 -57 -39q1 -16 15 -29q16 -15 57 -33q35 -15 52.5 -23.5 t48.5 -28t46 -38t27 -48.5q10 -25 10 -54v-10q-2 -70 -57 -116q-53 -45 -152 -45h-9q-120 2 -191 29z" />
<glyph unicode="t" horiz-adv-x="419" d="M12 446v99l79 10v132h150v-122h149v-119h-149v-224q0 -25 1 -38t5 -27.5t13 -21t24 -9.5q12 -2 29 -2q32 0 82 6l7 -129q-42 -8 -115 -8q-193 7 -196 180v273h-79z" />
<glyph unicode="u" horiz-adv-x="626" d="M71 187v378h146v-346q0 -64 12.5 -84.5t45.5 -22.5h11q66 0 118 45v408h145v-565h-145v40q-53 -50 -123 -51h-6q-55 1 -95 17q-42 18 -63 39.5t-32 54.5t-12.5 50t-1.5 37z" />
<glyph unicode="v" horiz-adv-x="602" d="M12 565h172l117 -398q21 70 62 210.5t55 187.5h172l-205 -570h-167z" />
<glyph unicode="w" horiz-adv-x="818" d="M14 565h163l64 -380l99 380h135l103 -380l64 380h162l-145 -570h-154l-97 371l-95 -371h-154z" />
<glyph unicode="x" horiz-adv-x="639" d="M22 0l218 289l-205 276h177l109 -155l111 155h179l-209 -278l216 -287h-179l-120 167l-118 -167h-179z" />
<glyph unicode="y" horiz-adv-x="601" d="M12 565h167l116 -366q17 50 62.5 177.5t66.5 188.5h161l-288 -752h-152l78 205z" />
<glyph unicode="z" horiz-adv-x="541" d="M42 0v107l265 332h-250v121h442v-105l-264 -329h253v-126h-446z" />
<glyph unicode="{" horiz-adv-x="373" d="M5 296v77q43 2 70 25.5t27 55.5v133q0 101 69 155t187 54l-5 -99q-144 0 -144 -107v-127q0 -81 -67 -126q38 -19 53.5 -50t15.5 -89v-151q0 -25 8 -43t19.5 -28t30 -16t33 -8t35.5 -3l2 -88q-235 0 -235 189v157q0 40 -27 64.5t-72 24.5z" />
<glyph unicode="|" horiz-adv-x="337" d="M110 -138v955h117v-955h-117z" />
<glyph unicode="}" horiz-adv-x="373" d="M15 797q118 0 187 -54t69 -155v-133q0 -32 27 -55.5t70 -25.5v-77q-45 0 -72 -24.5t-27 -64.5v-157q0 -189 -235 -189l2 88q21 1 35.5 3t33 8t30 16t19.5 28t8 43v151q0 58 15.5 89t53.5 50q-67 45 -67 126v127q0 107 -144 107z" />
<glyph unicode="~" d="M4 208q0 244 165 244q38 0 76.5 -23t65 -50.5t58 -50.5t56.5 -23q29 0 37 36.5t7 93.5h119q2 -112 -36.5 -176.5t-124.5 -64.5q-43 0 -84 21t-67 45.5t-55 45.5t-51 21q-17 0 -27.5 -8.5t-15 -24t-5.5 -28.5t-1 -32.5t-1 -25.5h-116z" />
<glyph unicode="&#xa1;" horiz-adv-x="362" d="M80 488q0 41 29.5 71t71.5 30q41 0 71 -30t30 -71q0 -42 -30 -71.5t-71 -29.5q-42 0 -71.5 29.5t-29.5 71.5zM96 -203l16 511h124l17 -511h-157z" />
<glyph unicode="&#xa2;" d="M50 343q2 117 69 198.5t201 98.5v125h91v-122q32 -1 58 -3.5t50 -7t25 -4.5l-17 -125q-70 12 -116 14v-349q55 3 113 15l14 -125q-66 -15 -127 -18v-126l-91 1v126q-64 5 -113 26t-78 50t-47.5 68.5t-25 77t-6.5 80.5zM202 343q0 -145 118 -171v339q-116 -28 -118 -168z " />
<glyph unicode="&#xa3;" d="M30 307v94h98v108q0 96 72.5 152.5t182.5 56.5q100 0 175 -52l-65 -99q-64 30 -117 27q-40 -2 -67.5 -25t-27.5 -61v-107h229v-94h-229v-104q0 -47 -21 -81h290v-122h-500l8 122q41 2 55.5 19.5t14.5 52.5v113h-98z" />
<glyph unicode="&#xa5;" d="M2 708h165l130 -284l126 284h165l-163 -308h141v-93h-191l-3 -7v-300h-154l1 299l-4 8h-181v93h131z" />
<glyph unicode="&#xa6;" horiz-adv-x="336" d="M120 -138v435h96v-435h-96zM120 468v349h96v-349h-96z" />
<glyph unicode="&#xa7;" horiz-adv-x="524" d="M55 432h100q2 -15 5 -25.5t8.5 -21t9.5 -17t15.5 -17.5t18 -16.5t25.5 -21.5t30 -26q26 -22 69 -53.5t64.5 -49t42 -47.5t24.5 -66q4 -30 -5 -59.5t-31 -55.5t-64 -42t-98 -16q-99 0 -194 29l26 122q101 -28 168 -28q26 0 43 14t17 36q0 18 -23 41t-70.5 57.5t-58.5 43.5 q-36 31 -50 44t-35.5 41t-29 59.5t-7.5 74.5zM55 627q0 24 9.5 50t30 53t61.5 44.5t97 17.5q99 0 194 -29l-26 -122q-101 28 -168 28q-24 0 -39.5 -14.5t-15.5 -36.5q0 -18 21 -40t69.5 -58t56.5 -43q36 -31 50 -44t35.5 -41t29 -59.5t7.5 -74.5h-100q-2 15 -5 25.5t-8.5 21 t-9.5 17t-15.5 17.5t-18 16.5t-25.5 21.5t-30 26q-25 22 -70 54.5t-68 51t-42.5 50.5t-19.5 68z" />
<glyph unicode="&#xa8;" horiz-adv-x="476" d="M45 722q0 32 22 54t54 22q33 0 56 -22t23 -54t-23 -54t-56 -22q-32 0 -54 22t-22 54zM276 722q0 32 22.5 54t56.5 22q31 0 53.5 -22t22.5 -54t-22 -54t-54 -22q-34 0 -56.5 22t-22.5 54z" />
<glyph unicode="&#xa9;" horiz-adv-x="922" d="M55 355q0 174 116 284.5t290 110.5q173 0 289.5 -111t116.5 -284q0 -176 -112.5 -286t-293.5 -110t-293.5 110t-112.5 286zM145 355q0 -145 89 -229.5t227 -84.5q141 0 227 84.5t86 229.5q0 144 -89.5 230t-223.5 86q-135 0 -225.5 -86t-90.5 -230zM266 358 q0 -100 57 -158t159 -58q63 0 119 24l-22 87q-56 -18 -97 -17q-54 1 -81 35.5t-27 86.5q2 113 109 113q38 0 88 -11l19 88q-57 17 -107 17q-102 0 -158.5 -54.5t-58.5 -152.5z" />
<glyph unicode="&#xaa;" horiz-adv-x="440" d="M55 246v61h330v-61h-330zM56 482q-2 50 33 81.5t88 36.5l64 5v17q0 43 -54 43q-37 0 -93 -13l-17 71q54 15 110 15q41 1 70 -9t43 -23t21.5 -34.5t8.5 -33.5t1 -29l-1 -121q0 -22 9.5 -30t28.5 -11l-13 -64q-76 -2 -100 42q-28 -38 -81 -39q-116 0 -118 96zM141 492 q0 -40 46 -38q35 2 56 17v69l-57 -5q-45 -7 -45 -43z" />
<glyph unicode="&#xab;" horiz-adv-x="539" d="M25 299l145 211h134l-149 -211l152 -211h-139zM255 299l145 211h135l-149 -211l154 -211h-142z" />
<glyph unicode="&#xac;" d="M35 265v106h522v-265h-99v159h-423z" />
<glyph unicode="&#xae;" horiz-adv-x="806" d="M55 484q0 149 99 243.5t249 94.5q149 0 248.5 -94.5t99.5 -243.5q0 -151 -96.5 -245t-251.5 -94q-156 0 -252 94t-96 245zM137 484q0 -123 74 -194t192 -71q119 0 191.5 71.5t72.5 193.5q0 121 -75.5 193.5t-188.5 72.5q-117 0 -191.5 -69.5t-74.5 -196.5zM275 314h74 v130h35l92 -130h87l-100 143q79 22 80 108q0 59 -41.5 83t-97.5 25h-129v-359zM349 509v101h46q71 0 72 -44q1 -34 -20 -45.5t-51 -11.5h-47z" />
<glyph unicode="&#xaf;" horiz-adv-x="510" d="M45 678v92h420v-92h-420z" />
<glyph unicode="&#xb0;" horiz-adv-x="507" d="M65 631q0 75 54 127t135 52q80 0 134 -52t54 -127q0 -76 -54 -128.5t-134 -52.5q-81 0 -135 52.5t-54 128.5zM173 631q0 -42 23 -66.5t59 -24.5q37 0 60 24.5t23 66.5q0 39 -23 63t-60 24q-36 0 -59 -24t-23 -63z" />
<glyph unicode="&#xb1;" d="M35 1v106h522v-106h-522zM36 260v107h205v207h111v-207h205v-107h-205v-107h-111v107h-205z" />
<glyph unicode="&#xb2;" horiz-adv-x="330" d="M36 382v74l43 36q43 36 59 51.5t30 36t14 39.5q0 31 -42 31q-30 0 -90 -12l-13 89q50 13 103 14q74 1 110.5 -31t36.5 -79q0 -86 -105 -163h113v-86h-259z" />
<glyph unicode="&#xb3;" horiz-adv-x="325" d="M35 393l19 79q52 -13 87 -13q49 0 49 29q0 6 -2 12t-8.5 12.5t-22 10.5t-37.5 3h-35v73h35q57 1 57 33q0 24 -42 24q-30 0 -83 -11l-12 80q44 14 94 14q71 1 107 -24t35 -74q0 -21 -12 -41.5t-30 -32.5q28 -13 42 -36.5t13 -49.5q-1 -47 -36 -77.5t-113 -29.5 q-56 1 -105 19z" />
<glyph unicode="&#xb4;" horiz-adv-x="370" d="M45 636l121 213h159l-147 -213h-133z" />
<glyph unicode="&#xb6;" horiz-adv-x="715" d="M39 540q0 92 62 135.5t169 43.5h400v-61h-82v-742h-96v742h-98v-743h-98v428h-35q-222 0 -222 197z" />
<glyph unicode="&#xb7;" horiz-adv-x="381" d="M94 320q0 41 29.5 71t71.5 30q41 0 71 -30t30 -71q0 -42 -30 -71.5t-71 -29.5q-42 0 -71.5 29.5t-29.5 71.5z" />
<glyph unicode="&#xb8;" horiz-adv-x="336" d="M22 -112q36 5 53 9.5t36.5 17t25.5 36t3 62.5h102q1 -33 -1 -58.5t-13.5 -56.5t-33.5 -51.5t-64 -34.5t-100 -15z" />
<glyph unicode="&#xb9;" horiz-adv-x="336" d="M35 671l108 61h98v-271h60v-82h-235v82h74v170q-10 -6 -33 -19.5t-33 -18.5z" />
<glyph unicode="&#xba;" horiz-adv-x="447" d="M55 247v61h330v-61h-330zM55 560q0 76 44.5 125t125.5 50q81 0 124 -49t43 -126q0 -75 -44.5 -125.5t-122.5 -50.5q-84 1 -127 50.5t-43 125.5zM154 560q0 -102 72 -102q37 1 52 31.5t15 70.5q0 37 -16 66.5t-52 29.5q-71 -1 -71 -96z" />
<glyph unicode="&#xbb;" horiz-adv-x="539" d="M25 88l154 211l-149 211h135l145 -211l-143 -211h-142zM258 88l152 211l-149 211h134l145 -211l-143 -211h-139z" />
<glyph unicode="&#xbc;" horiz-adv-x="683" d="M21 671l108 61h98v-271h60v-82h-235v82h74v170q-10 -6 -33 -19.5t-33 -18.5zM42 103l47 -48l559 560l-47 49zM315 74v62l145 220h119v-200h49v-82h-49v-73h-93v73h-171zM420 156h66v104z" />
<glyph unicode="&#xbd;" horiz-adv-x="699" d="M19 671l108 61h98v-271h60v-82h-235v82h74v170q-10 -6 -33 -19.5t-33 -18.5zM46 103l47 -48l559 560l-47 49zM413 1v74l43 36q43 36 59 51.5t30 36t14 39.5q0 31 -42 31q-30 0 -90 -12l-13 89q50 13 103 14q74 1 110.5 -31t36.5 -79q0 -86 -105 -163h113v-86h-259z" />
<glyph unicode="&#xbe;" horiz-adv-x="676" d="M35 103l47 -48l559 560l-47 49zM46 398l19 79q52 -13 87 -13q49 0 49 29q0 6 -2 12t-8.5 12.5t-22 10.5t-37.5 3h-35v73h35q57 1 57 33q0 24 -42 24q-30 0 -83 -11l-12 80q44 14 94 14q71 1 107 -24t35 -74q0 -21 -12 -41.5t-30 -32.5q28 -13 42 -36.5t13 -49.5 q-1 -47 -36 -77.5t-113 -29.5q-56 1 -105 19zM311 74v62l145 220h119v-200h49v-82h-49v-73h-93v73h-171zM416 156h66v104z" />
<glyph unicode="&#xbf;" horiz-adv-x="492" d="M25 17q0 78 50 131.5t117 72.5l5 81h129l6 -151q-83 -28 -121 -55t-37 -76q1 -34 28 -50.5t69 -16.5q71 0 166 21l22 -121q-114 -25 -187 -26q-65 -2 -115 16.5t-77.5 48.5t-41 62t-13.5 63zM160 475q0 40 28.5 68t67.5 28q40 0 68 -28t28 -68q0 -39 -28 -67.5t-68 -28.5 q-39 0 -67.5 28.5t-28.5 67.5z" />
<glyph unicode="&#xc0;" horiz-adv-x="642" d="M4 5l231 628h165l238 -628h-151l-42 115h-254l-40 -115h-147zM140 836l159 -1l96 -170h-135zM235 250h164l-81 247z" />
<glyph unicode="&#xc1;" horiz-adv-x="642" d="M4 5h147l40 115h254l42 -115h151l-238 628h-165zM235 250l83 247l81 -247h-164zM249 665l96 170l159 1l-120 -171h-135z" />
<glyph unicode="&#xc2;" horiz-adv-x="642" d="M4 0h147l40 115h254l42 -115h151l-238 628h-165zM118 664l129 181h142l130 -180h-137l-64 91l-63 -92h-137zM235 245l83 247l81 -247h-164z" />
<glyph unicode="&#xc3;" horiz-adv-x="642" d="M4 0l231 628h165l238 -628h-151l-42 115h-254l-40 -115h-147zM103 676q0 74 41 113t97 39q41 0 89 -28.5t61 -28.5q22 0 29 12.5t9 35.5h85q0 -76 -35 -114t-93 -38q-30 0 -80.5 28.5t-69.5 28.5q-14 0 -30 -12t-17 -36h-86zM235 245h164l-81 247z" />
<glyph unicode="&#xc4;" horiz-adv-x="642" d="M4 0l231 628h165l238 -628h-151l-42 115h-254l-40 -115h-147zM126 762q0 32 22 54t54 22q33 0 56 -22t23 -54t-23 -54t-56 -22q-32 0 -54 22t-22 54zM235 245h164l-81 247zM357 762q0 32 22.5 54t56.5 22q32 0 54 -22t22 -54t-22 -54t-54 -22q-34 0 -56.5 22t-22.5 54z " />
<glyph unicode="&#xc5;" horiz-adv-x="642" d="M4 0l227 618q-62 38 -62 109q0 55 41.5 91.5t107.5 36.5q64 0 105.5 -36.5t41.5 -91.5q0 -72 -62 -109l235 -618h-151l-42 115h-254l-40 -115h-147zM235 245h164l-81 247zM266 727q0 -25 15.5 -38.5t36.5 -13.5q20 0 35 13.5t15 38.5q0 23 -15 35.5t-35 12.5 q-19 0 -35.5 -12t-16.5 -36z" />
<glyph unicode="&#xc6;" horiz-adv-x="905" d="M4 0l300 726h556v-128h-273v-156h237v-128h-237v-186h273v-128h-425v161h-214l-65 -161h-152zM273 289h162v308h-36z" />
<glyph unicode="&#xc7;" horiz-adv-x="656" d="M52 356q0 164 97 271t271 107q100 0 193 -30l-39 -130q-88 24 -158 24q-59 0 -101.5 -21t-65.5 -57.5t-33 -76.5t-10 -87q0 -65 19 -115.5t65.5 -84.5t116.5 -35q84 -1 178 26l29 -125q-78 -28 -167 -34q0 -39 -7 -69.5t-27 -61.5t-65 -48.5t-113 -18.5l-8 91 q34 5 50.5 9.5t36 15.5t26.5 31.5t6 53.5q-149 17 -221.5 113.5t-72.5 251.5z" />
<glyph unicode="&#xc8;" horiz-adv-x="582" d="M82 5v623h445v-127h-293v-110h256v-134h-256v-122h293v-130h-445zM151 836l159 -1l96 -170h-135z" />
<glyph unicode="&#xc9;" horiz-adv-x="582" d="M82 5h445v130h-293v122h256v134h-256v110h293v127h-445v-623zM221 665l96 170l159 1l-120 -171h-135z" />
<glyph unicode="&#xca;" horiz-adv-x="582" d="M82 5h445v130h-293v122h256v134h-256v110h293v127h-445v-623zM109 664l129 181h142l130 -180h-137l-64 91l-63 -92h-137z" />
<glyph unicode="&#xcb;" horiz-adv-x="582" d="M82 0v623h445v-127h-293v-110h256v-134h-256v-122h293v-130h-445zM116 762q0 32 22 54t54 22q33 0 56 -22t23 -54t-23 -54t-56 -22q-32 0 -54 22t-22 54zM347 762q0 32 22.5 54t56.5 22q32 0 54 -22t22 -54t-22 -54t-54 -22q-34 0 -56.5 22t-22.5 54z" />
<glyph unicode="&#xcc;" horiz-adv-x="445" d="M56 836l159 -1l96 -170h-135zM67 5v116h85v394h-83v117h318v-117h-83v-394h85v-116h-322z" />
<glyph unicode="&#xcd;" horiz-adv-x="445" d="M59 5h322v116h-85v394h83v117h-318v-117h83v-394h-85v-116zM131 665l96 170l159 1l-120 -171h-135z" />
<glyph unicode="&#xce;" horiz-adv-x="445" d="M22 664l129 181h142l130 -180h-137l-64 91l-63 -92h-137zM63 5h322v116h-85v394h83v117h-318v-117h83v-394h-85v-116z" />
<glyph unicode="&#xcf;" horiz-adv-x="446" d="M30 782q0 32 22 54t54 22q33 0 56 -22t23 -54t-23 -54t-56 -22q-32 0 -54 22t-22 54zM60 0v116h85v394h-83v117h318v-117h-83v-394h85v-116h-322zM261 782q0 32 22.5 54t56.5 22q32 0 54 -22t22 -54t-22 -54t-54 -22q-34 0 -56.5 22t-22.5 54z" />
<glyph unicode="&#xd0;" horiz-adv-x="711" d="M-31 311v116h99v297q98 4 202 4q186 0 287.5 -100t101.5 -269q0 -165 -97.5 -263.5t-272.5 -98.5q-51 0 -125.5 1.5t-95.5 1.5v311h-99zM223 127h42q121 0 178.5 61t57.5 171q0 122 -59.5 181t-190.5 59q-19 -1 -28 -1v-171h150v-116h-150v-184z" />
<glyph unicode="&#xd1;" horiz-adv-x="729" d="M86 0v626h143l259 -371v370h155v-625h-142l-259 364v-364h-156zM164 676q0 74 41 113t97 39q41 0 89 -28.5t61 -28.5q22 0 29 12.5t9 35.5h85q0 -76 -35 -114t-93 -38q-30 0 -80.5 28.5t-69.5 28.5q-14 0 -30 -12t-17 -36h-86z" />
<glyph unicode="&#xd2;" horiz-adv-x="754" d="M52 322q0 47 10.5 91t35 85.5t61 72.5t93 50t125.5 19q85 0 150 -28.5t102 -75.5t55 -101.5t18 -112.5q0 -143 -83.5 -238t-241.5 -95t-241.5 95t-83.5 238zM209 322q0 -89 39 -148.5t128 -59.5q88 0 129.5 60.5t41.5 147.5q0 83 -42 138.5t-129 55.5q-46 0 -80.5 -19.5 t-52 -50t-26 -62t-8.5 -62.5zM227 836l159 -1l96 -170h-135z" />
<glyph unicode="&#xd3;" horiz-adv-x="754" d="M52 322q0 -143 83.5 -238t241.5 -95t241.5 95t83.5 238q0 58 -18 112.5t-55 101.5t-102 75.5t-150 28.5q-69 0 -125.5 -19t-93 -50t-61 -72.5t-35 -85.5t-10.5 -91zM209 322q0 31 8.5 62.5t26 62t52 50t80.5 19.5q87 0 129 -55.5t42 -138.5q0 -87 -41.5 -147.5 t-129.5 -60.5q-89 0 -128 59.5t-39 148.5zM277 655l96 170l159 1l-120 -171h-135z" />
<glyph unicode="&#xd4;" horiz-adv-x="754" d="M52 322q0 -143 83.5 -238t241.5 -95t241.5 95t83.5 238q0 58 -18 112.5t-55 101.5t-102 75.5t-150 28.5q-69 0 -125.5 -19t-93 -50t-61 -72.5t-35 -85.5t-10.5 -91zM175 664l129 181h142l130 -180h-137l-64 91l-63 -92h-137zM209 322q0 31 8.5 62.5t26 62t52 50 t80.5 19.5q87 0 129 -55.5t42 -138.5q0 -87 -41.5 -147.5t-129.5 -60.5q-89 0 -128 59.5t-39 148.5z" />
<glyph unicode="&#xd5;" horiz-adv-x="754" d="M52 317q0 47 10.5 91t35 85.5t61 72.5t93 50t125.5 19q85 0 150 -28.5t102 -75.5t55 -101.5t18 -112.5q0 -143 -83.5 -238t-241.5 -95t-241.5 95t-83.5 238zM167 676q0 74 41 113t97 39q41 0 89 -28.5t61 -28.5q22 0 29 12.5t9 35.5h85q0 -76 -35 -114t-93 -38 q-30 0 -80.5 28.5t-69.5 28.5q-14 0 -30 -12t-17 -36h-86zM209 317q0 -89 39 -148.5t128 -59.5q88 0 129.5 60.5t41.5 147.5q0 83 -42 138.5t-129 55.5q-46 0 -80.5 -19.5t-52 -50t-26 -62t-8.5 -62.5z" />
<glyph unicode="&#xd6;" horiz-adv-x="754" d="M52 317q0 47 10.5 91t35 85.5t61 72.5t93 50t125.5 19q85 0 150 -28.5t102 -75.5t55 -101.5t18 -112.5q0 -143 -83.5 -238t-241.5 -95t-241.5 95t-83.5 238zM184 763q0 32 22 54t54 22q33 0 56 -22t23 -54t-23 -54t-56 -22q-32 0 -54 22t-22 54zM209 317q0 -89 39 -148.5 t128 -59.5q88 0 129.5 60.5t41.5 147.5q0 83 -42 138.5t-129 55.5q-46 0 -80.5 -19.5t-52 -50t-26 -62t-8.5 -62.5zM415 763q0 32 22.5 54t56.5 22q32 0 54 -22.5t22 -53.5q0 -32 -22 -54t-54 -22q-34 0 -56.5 22t-22.5 54z" />
<glyph unicode="&#xd7;" d="M43 479l71 71l173 -174l180 180l71 -71l-178 -181l183 -183l-71 -71l-183 184l-171 -169l-71 71l170 170z" />
<glyph unicode="&#xd8;" horiz-adv-x="804" d="M29 58l86 86q-57 96 -57 217q0 78 22 146t64 121t110 84t155 31q136 0 227 -78l73 73l65 -66l-78 -78q62 -100 62 -233q0 -160 -94 -267t-255 -107q-140 0 -235 85l-80 -80zM212 361q0 -57 16 -104l305 305q-51 51 -125 51q-98 0 -147 -73t-49 -179zM276 174 q51 -54 132 -54q93 0 144.5 70t51.5 171q0 64 -20 121z" />
<glyph unicode="&#xd9;" horiz-adv-x="680" d="M68 251v378h154v-362q0 -80 28.5 -113t95.5 -33q68 0 90.5 32t22.5 114v362h153v-378q0 -129 -61.5 -193t-203.5 -64q-144 0 -211.5 64.5t-67.5 192.5zM190 826l159 -1l96 -170h-135z" />
<glyph unicode="&#xda;" horiz-adv-x="680" d="M68 251q0 -128 67.5 -192.5t211.5 -64.5q142 0 203.5 64t61.5 193v378h-153v-362q0 -82 -22.5 -114t-90.5 -32q-67 0 -95.5 33t-28.5 113v362h-154v-378zM243 655l96 170l159 1l-120 -171h-135z" />
<glyph unicode="&#xdb;" horiz-adv-x="680" d="M68 246q0 -128 67.5 -192.5t211.5 -64.5q142 0 203.5 64t61.5 193v378h-153v-362q0 -82 -22.5 -114t-90.5 -32q-67 0 -95.5 33t-28.5 113v362h-154v-378zM142 649l129 181h142l130 -180h-137l-64 91l-63 -92h-137z" />
<glyph unicode="&#xdc;" horiz-adv-x="680" d="M68 246v378h154v-362q0 -80 28.5 -113t95.5 -33q68 0 90.5 32t22.5 114v362h153v-378q0 -129 -61.5 -193t-203.5 -64q-144 0 -211.5 64.5t-67.5 192.5zM153 764q0 32 22 54t54 22q33 0 56 -22t23 -54t-23 -54t-56 -22q-32 0 -54 22t-22 54zM384 764q0 32 22.5 54t56.5 22 q31 0 53.5 -22t22.5 -54t-22 -54t-54 -22q-34 0 -56.5 22t-22.5 54z" />
<glyph unicode="&#xdd;" horiz-adv-x="605" d="M4 627l222 -396v-231h154v229l221 398h-164l-132 -256l-138 256h-163zM227 665l96 170l159 1l-120 -171h-135z" />
<glyph unicode="&#xde;" horiz-adv-x="609" d="M68 0v726h156v-88h90q253 0 253 -203q0 -108 -64 -162.5t-180 -54.5h-99v-218h-156zM224 341h80q62 0 88 23t26 69q0 44 -27 63.5t-87 19.5h-80v-175z" />
<glyph unicode="&#xdf;" horiz-adv-x="644" d="M77 0v571q0 86 62.5 141t167.5 56q213 0 213 -160q-2 -41 -16.5 -74t-31 -50t-30 -34.5t-13.5 -32.5q0 -7 1 -13t5.5 -12.5t7.5 -10.5t12 -11.5t15 -12t20.5 -14.5t23.5 -17q37 -27 57 -47.5t34 -54t13 -76.5q-8 -164 -215 -159q-70 2 -134 20l28 130q76 -19 116 -19 q54 0 61 35q1 23 -12.5 39t-58.5 51q-76 56 -98.5 87.5t-22.5 71.5q0 26 15 52t32.5 45t33.5 48.5t17 60.5q-2 20 -23 32.5t-55 8.5q-80 -9 -80 -83v-568h-145z" />
<glyph unicode="&#xe0;" horiz-adv-x="601" d="M39 150q-3 96 58.5 141.5t147.5 49.5l109 5q0 26 -1 36q-4 44 -23 55.5t-73 11.5q-45 0 -167 -20l-17 123q96 24 184 25q67 1 115 -14.5t71.5 -35.5t36.5 -51.5t15 -49.5t2 -42v-200q1 -35 16.5 -48.5t47.5 -15.5l-12 -123q-123 -2 -166 57q-46 -59 -133 -64 q-95 -4 -152 41.5t-59 118.5zM118 849h159l121 -212l-133 -1zM187 160q1 -25 23.5 -38t57.5 -12q53 1 92 32v93q-14 0 -47.5 -2t-48.5 -3q-45 -3 -61 -21.5t-16 -48.5z" />
<glyph unicode="&#xe1;" horiz-adv-x="601" d="M39 150q2 -73 59 -118.5t152 -41.5q87 5 133 64q43 -59 166 -57l12 123q-32 2 -47.5 15.5t-16.5 48.5v200q0 24 -2 42t-15 49.5t-36.5 51.5t-71.5 35.5t-115 14.5q-88 -1 -184 -25l17 -123q122 20 167 20q54 0 73 -11.5t23 -55.5q1 -10 1 -36l-109 -5 q-86 -4 -147.5 -49.5t-58.5 -141.5zM185 636l121 213h159l-147 -213h-133zM187 160q0 30 16 48.5t61 21.5q15 1 48.5 3t47.5 2v-93q-39 -31 -92 -32q-35 -1 -57.5 12t-23.5 38z" />
<glyph unicode="&#xe2;" horiz-adv-x="601" d="M39 150q-3 96 58.5 141.5t147.5 49.5l109 5q0 26 -1 36q-4 44 -23 55.5t-73 11.5q-45 0 -167 -20l-17 123q96 24 184 25q67 1 115 -14.5t71.5 -35.5t36.5 -51.5t15 -49.5t2 -42v-200q1 -35 16.5 -48.5t47.5 -15.5l-12 -123q-123 -2 -166 57q-46 -59 -133 -64 q-95 -4 -152 41.5t-59 118.5zM64 641l147 204h142l147 -204h-137l-81 115l-81 -115h-137zM187 160q1 -25 23.5 -38t57.5 -12q53 1 92 32v93q-14 0 -47.5 -2t-48.5 -3q-45 -3 -61 -21.5t-16 -48.5z" />
<glyph unicode="&#xe3;" horiz-adv-x="601" d="M39 150q-3 96 58.5 141.5t147.5 49.5l109 5q0 26 -1 36q-4 44 -23 55.5t-73 11.5q-45 0 -167 -20l-17 123q96 24 184 25q67 1 115 -14.5t71.5 -35.5t36.5 -51.5t15 -49.5t2 -42v-200q1 -35 16.5 -48.5t47.5 -15.5l-12 -123q-123 -2 -166 57q-46 -59 -133 -64 q-95 -4 -152 41.5t-59 118.5zM74 670q0 74 41 113t97 39q41 0 89 -28.5t61 -28.5q22 0 29 12.5t9 35.5h85q0 -76 -35 -114t-93 -38q-30 0 -80.5 28.5t-69.5 28.5q-14 0 -30 -12t-17 -36h-86zM187 160q1 -25 23.5 -38t57.5 -12q53 1 92 32v93q-14 0 -47.5 -2t-48.5 -3 q-45 -3 -61 -21.5t-16 -48.5z" />
<glyph unicode="&#xe4;" horiz-adv-x="601" d="M39 150q-3 96 58.5 141.5t147.5 49.5l109 5q0 26 -1 36q-4 44 -23 55.5t-73 11.5q-45 0 -167 -20l-17 123q96 24 184 25q67 1 115 -14.5t71.5 -35.5t36.5 -51.5t15 -49.5t2 -42v-200q1 -35 16.5 -48.5t47.5 -15.5l-12 -123q-123 -2 -166 57q-46 -59 -133 -64 q-95 -4 -152 41.5t-59 118.5zM98 722q0 32 22 54t54 22q33 0 56 -22t23 -54t-23 -54t-56 -22q-32 0 -54 22t-22 54zM187 160q1 -25 23.5 -38t57.5 -12q53 1 92 32v93q-14 0 -47.5 -2t-48.5 -3q-45 -3 -61 -21.5t-16 -48.5zM329 722q0 32 22.5 54t56.5 22q32 0 54 -22t22 -54 t-22 -54t-54 -22q-34 0 -56.5 22t-22.5 54z" />
<glyph unicode="&#xe5;" horiz-adv-x="601" d="M39 150q-3 96 58.5 141.5t147.5 49.5l109 5q0 26 -1 36q-4 44 -23 55.5t-73 11.5q-45 0 -167 -20l-17 123q96 24 184 25q67 1 115 -14.5t71.5 -35.5t36.5 -51.5t15 -49.5t2 -42v-200q1 -35 16.5 -48.5t47.5 -15.5l-12 -123q-123 -2 -166 57q-46 -59 -133 -64 q-95 -4 -152 41.5t-59 118.5zM136 752q0 55 41.5 91.5t107.5 36.5q64 0 105.5 -36.5t41.5 -91.5q0 -57 -41.5 -94t-105.5 -37t-106.5 37t-42.5 94zM187 160q1 -25 23.5 -38t57.5 -12q53 1 92 32v93q-14 0 -47.5 -2t-48.5 -3q-45 -3 -61 -21.5t-16 -48.5zM233 752 q0 -25 15.5 -38.5t36.5 -13.5q20 0 35 13.5t15 38.5q0 23 -15 35.5t-35 12.5q-19 0 -35.5 -12t-16.5 -36z" />
<glyph unicode="&#xe6;" horiz-adv-x="861" d="M39 150q-2 47 15.5 83.5t48.5 57.5t65.5 32t72.5 13l109 5q0 21 -1 30q-3 49 -22 63.5t-74 14.5q-50 0 -172 -20l-17 123q95 23 189 25q127 1 185 -53q58 50 160 50q229 0 222 -279l-1 -56h-334q1 -69 42.5 -97t101.5 -28q20 0 59.5 4t69.5 8l30 5l19 -118 q-75 -24 -187 -24q-139 0 -203 71l-13 -12q-27 -24 -73.5 -41t-94.5 -17q-97 0 -146 44.5t-51 115.5zM187 160q2 -51 63 -50q75 1 106 32v93q-14 0 -47.5 -2t-48.5 -3q-43 -3 -58 -21.5t-15 -48.5zM489 346h192q-1 111 -89 113q-90 3 -103 -113z" />
<glyph unicode="&#xe7;" horiz-adv-x="519" d="M42 286q2 124 83.5 206.5t215.5 82.5q78 0 145 -21l-25 -127q-67 14 -115 13q-68 -2 -112.5 -43.5t-45.5 -110.5q0 -76 38.5 -121.5t124.5 -44.5q52 0 118 13l15 -127q-54 -16 -117 -19q1 -31 -2.5 -55.5t-16.5 -52.5t-35 -47t-62.5 -31.5t-95.5 -13.5l-8 91q28 4 42 7 t32.5 10.5t26.5 19t13 31.5t4 48q-122 20 -172.5 96t-50.5 196z" />
<glyph unicode="&#xe8;" horiz-adv-x="580" d="M42 285q0 58 14 107.5t43.5 91.5t82 66t123.5 24q229 0 222 -279l-3 -59h-334q2 -122 146 -122q63 0 161 19l19 -121q-81 -26 -189 -26q-285 0 -285 299zM136 849h159l121 -212l-133 -1zM194 345h196q-1 115 -91 117q-48 1 -73.5 -30t-31.5 -87z" />
<glyph unicode="&#xe9;" horiz-adv-x="580" d="M42 285q0 -299 285 -299q108 0 189 26l-19 121q-98 -19 -161 -19q-144 0 -146 122h334l3 59q7 279 -222 279q-71 0 -123.5 -24t-82 -66t-43.5 -91.5t-14 -107.5zM194 345q6 56 31.5 87t73.5 30q90 -2 91 -117h-196zM195 636l121 213h159l-147 -213h-133z" />
<glyph unicode="&#xea;" horiz-adv-x="580" d="M42 285q0 58 14 107.5t43.5 91.5t82 66t123.5 24q229 0 222 -279l-3 -59h-334q2 -122 146 -122q63 0 161 19l19 -121q-81 -26 -189 -26q-285 0 -285 299zM85 641l147 204h142l147 -204h-137l-81 115l-81 -115h-137zM194 345h196q-1 115 -91 117q-48 1 -73.5 -30 t-31.5 -87z" />
<glyph unicode="&#xeb;" horiz-adv-x="580" d="M42 285q0 58 14 107.5t43.5 91.5t82 66t123.5 24q229 0 222 -279l-3 -59h-334q2 -122 146 -122q63 0 161 19l19 -121q-81 -26 -189 -26q-285 0 -285 299zM107 722q0 32 22 54t54 22q33 0 56 -22t23 -54t-23 -54t-56 -22q-32 0 -54 22t-22 54zM194 345h196q-1 115 -91 117 q-48 1 -73.5 -30t-31.5 -87zM338 722q0 32 22.5 54t56.5 22q31 0 53.5 -22t22.5 -54t-22 -54t-54 -22q-34 0 -56.5 22t-22.5 54z" />
<glyph unicode="&#xec;" horiz-adv-x="316" d="M-35 849h159l121 -212l-133 -1zM100 0v560h149v-560h-149z" />
<glyph unicode="&#xed;" horiz-adv-x="317" d="M67 0h149v560h-149v-560zM72 636l121 213h159l-147 -213h-133z" />
<glyph unicode="&#xee;" horiz-adv-x="316" d="M-60 641l147 204h142l147 -204h-137l-81 115l-81 -115h-137zM83 0v560h149v-560h-149z" />
<glyph unicode="&#xef;" horiz-adv-x="296" d="M-40 763q0 32 22 54t54 22q33 0 56 -22t23 -54t-23 -54t-56 -22q-32 0 -54 22t-22 54zM80 0v560h149v-560h-149zM191 763q0 32 22.5 54t56.5 22q32 0 54 -22.5t22 -53.5q0 -32 -22 -54t-54 -22q-34 0 -56.5 22t-22.5 54z" />
<glyph unicode="&#xf0;" d="M43 249q6 97 75 157.5t194 57.5q34 -2 41 -4v-116q-23 6 -47 6q-62 0 -94 -32t-34 -79q-3 -53 23 -90t84 -37q80 0 111 63t25 161q-4 85 -17 134t-52 88l-55 -58l-51 47l50 53q-44 25 -113 49l43 113q91 -22 158 -68l69 73l50 -51l-65 -68q111 -115 112 -330 q-1 -24 -1.5 -30.5t-4.5 -39t-8.5 -48.5t-14.5 -48.5t-22.5 -51t-33 -43t-45.5 -37.5t-60 -23t-76 -10q-120 0 -183.5 78t-57.5 184z" />
<glyph unicode="&#xf1;" horiz-adv-x="648" d="M77 0v565h150v-50q68 61 150 62q41 1 73 -7t52.5 -20.5t35 -32.5t22 -37t11.5 -42.5t4.5 -40.5t0.5 -38v-359h-151v341q0 64 -14 85t-49 21q-71 0 -135 -54v-393h-150zM121 670q0 74 41 113t97 39q41 0 89 -28.5t61 -28.5q22 0 29 12.5t9 35.5h85q0 -76 -35 -114t-93 -38 q-30 0 -80.5 28.5t-69.5 28.5q-14 0 -30 -12t-17 -36h-86z" />
<glyph unicode="&#xf2;" horiz-adv-x="646" d="M42 281q0 81 29 146t94 106.5t158 42.5q138 -1 209.5 -85t71.5 -210q0 -59 -15.5 -109t-47.5 -91.5t-88 -65.5t-130 -25q-73 1 -128.5 25t-88 65.5t-48.5 92t-16 108.5zM157 849h159l121 -212l-133 -1zM186 281q0 -73 38 -118t99 -45q68 0 102 44.5t33 118.5 q-1 70 -34.5 118.5t-100.5 48.5q-64 0 -100.5 -50t-36.5 -117z" />
<glyph unicode="&#xf3;" horiz-adv-x="646" d="M42 281q0 -58 16 -108.5t48.5 -92t88 -65.5t128.5 -25q74 1 130 25t88 65.5t47.5 91.5t15.5 109q0 126 -71.5 210t-209.5 85q-93 -1 -158 -42.5t-94 -106.5t-29 -146zM186 281q0 67 36.5 117t100.5 50q67 0 100.5 -48.5t34.5 -118.5q1 -74 -33 -118.5t-102 -44.5 q-61 0 -99 45t-38 118zM238 636l121 213h159l-147 -213h-133z" />
<glyph unicode="&#xf4;" horiz-adv-x="646" d="M42 281q0 81 29 146t94 106.5t158 42.5q138 -1 209.5 -85t71.5 -210q0 -59 -15.5 -109t-47.5 -91.5t-88 -65.5t-130 -25q-73 1 -128.5 25t-88 65.5t-48.5 92t-16 108.5zM111 641l147 204h142l147 -204h-137l-81 115l-81 -115h-137zM186 281q0 -73 38 -118t99 -45 q68 0 102 44.5t33 118.5q-1 70 -34.5 118.5t-100.5 48.5q-64 0 -100.5 -50t-36.5 -117z" />
<glyph unicode="&#xf5;" horiz-adv-x="646" d="M42 281q0 81 29 146t94 106.5t158 42.5q138 -1 209.5 -85t71.5 -210q0 -59 -15.5 -109t-47.5 -91.5t-88 -65.5t-130 -25q-73 1 -128.5 25t-88 65.5t-48.5 92t-16 108.5zM116 670q0 74 41 113t97 39q41 0 89 -28.5t61 -28.5q22 0 29 12.5t9 35.5h85q0 -76 -35 -114 t-93 -38q-30 0 -80.5 28.5t-69.5 28.5q-14 0 -30 -12t-17 -36h-86zM186 281q0 -73 38 -118t99 -45q68 0 102 44.5t33 118.5q-1 70 -34.5 118.5t-100.5 48.5q-64 0 -100.5 -50t-36.5 -117z" />
<glyph unicode="&#xf6;" horiz-adv-x="646" d="M42 281q0 81 29 146t94 106.5t158 42.5q138 -1 209.5 -85t71.5 -210q0 -59 -15.5 -109t-47.5 -91.5t-88 -65.5t-130 -25q-73 1 -128.5 25t-88 65.5t-48.5 92t-16 108.5zM127 722q0 32 22 54t54 22q33 0 56 -22t23 -54t-23 -54t-56 -22q-32 0 -54 22t-22 54zM186 281 q0 -73 38 -118t99 -45q68 0 102 44.5t33 118.5q-1 70 -34.5 118.5t-100.5 48.5q-64 0 -100.5 -50t-36.5 -117zM358 722q0 32 22.5 54t56.5 22q31 0 53.5 -22t22.5 -54t-22 -54t-54 -22q-34 0 -56.5 22t-22.5 54z" />
<glyph unicode="&#xf7;" d="M33 265v106h522v-106h-522zM210 114q0 35 25 59.5t62 24.5q35 0 59.5 -25t24.5 -59q0 -35 -24.5 -59.5t-59.5 -24.5q-37 0 -62 24.5t-25 59.5zM210 511q0 35 25 59.5t62 24.5q35 0 59.5 -24.5t24.5 -59.5t-24.5 -59.5t-59.5 -24.5q-37 0 -62 24.5t-25 59.5z" />
<glyph unicode="&#xf8;" horiz-adv-x="646" d="M13 39l70 70q-43 72 -43 172q0 81 29 146t94 106.5t158 42.5q105 -1 176 -55l77 76l60 -56l-81 -80q49 -76 49 -180q0 -59 -15.5 -109t-47.5 -91.5t-88 -65.5t-130 -25q-115 1 -184 58l-65 -65zM184 281q0 -35 9 -63l206 205q-33 25 -78 25q-64 0 -100.5 -50t-36.5 -117z M237 147q35 -29 84 -29q68 0 102 44.5t33 118.5q-2 43 -11 72z" />
<glyph unicode="&#xf9;" horiz-adv-x="626" d="M71 187v378h146v-346q0 -64 12.5 -84.5t45.5 -22.5q72 -4 129 45v408h145v-565h-145v40q-53 -50 -123 -51q-59 -1 -101.5 16.5t-63 39.5t-31.5 55t-12.5 50t-1.5 37zM137 849h159l121 -212l-133 -1z" />
<glyph unicode="&#xfa;" horiz-adv-x="626" d="M71 187q0 -20 1.5 -37t12.5 -50t31.5 -55t63 -39.5t101.5 -16.5q70 1 123 51v-40h145v565h-145v-408q-57 -49 -129 -45q-33 2 -45.5 22.5t-12.5 84.5v346h-146v-378zM215 636l121 213h159l-147 -213h-133z" />
<glyph unicode="&#xfb;" horiz-adv-x="626" d="M71 187v378h146v-346q0 -64 12.5 -84.5t45.5 -22.5q72 -4 129 45v408h145v-565h-145v40q-53 -50 -123 -51q-59 -1 -101.5 16.5t-63 39.5t-31.5 55t-12.5 50t-1.5 37zM92 641l147 204h142l147 -204h-137l-81 115l-81 -115h-137z" />
<glyph unicode="&#xfc;" horiz-adv-x="626" d="M71 187v378h146v-346q0 -64 12.5 -84.5t45.5 -22.5q72 -4 129 45v408h145v-565h-145v40q-53 -50 -123 -51q-59 -1 -101.5 16.5t-63 39.5t-31.5 55t-12.5 50t-1.5 37zM127 763q0 32 22 54t54 22q33 0 56 -22t23 -54t-23 -54t-56 -22q-32 0 -54 22t-22 54zM358 763 q0 32 22.5 54t56.5 22q31 0 53.5 -22.5t22.5 -53.5q0 -32 -22 -54t-54 -22q-34 0 -56.5 22t-22.5 54z" />
<glyph unicode="&#xfd;" horiz-adv-x="601" d="M12 565l211 -547l-78 -205h152l288 752h-161q-21 -61 -66.5 -188.5t-62.5 -177.5l-116 366h-167zM215 636l121 213h159l-147 -213h-133z" />
<glyph unicode="&#xfe;" horiz-adv-x="642" d="M77 -189v950h150v-245q17 21 54.5 40.5t87.5 19.5q113 0 172 -76.5t58 -207.5q0 -56 -15 -107t-45.5 -96t-85.5 -72t-127 -28q-46 -1 -99 9v-187h-150zM227 127q43 -9 79 -9q69 0 106 47t42 127q8 158 -119 158q-27 0 -58 -16t-50 -37v-270z" />
<glyph unicode="&#xff;" horiz-adv-x="601" d="M12 565h167l116 -366q17 50 62.5 177.5t66.5 188.5h161l-288 -752h-152l78 205zM111 737q0 32 22 54t54 22q33 0 56 -22t23 -54t-23 -54t-56 -22q-32 0 -54 22t-22 54zM342 737q0 32 22.5 54t56.5 22q31 0 53.5 -22.5t22.5 -53.5q0 -32 -22 -54t-54 -22q-34 0 -56.5 22 t-22.5 54z" />
<glyph unicode="&#x152;" horiz-adv-x="1013" d="M52 356q0 80 17.5 146t54.5 119t101 83t151 30q100 0 167 -43v35h425v-128h-273v-158h237v-128h-237v-184h273v-128h-425v29q-65 -45 -167 -45q-158 0 -241 104.5t-83 267.5zM209 356q0 -243 166 -243q61 0 99.5 35t53 87t14.5 121q0 52 -8 94.5t-26.5 79t-52 56.5 t-80.5 20q-166 0 -166 -250z" />
<glyph unicode="&#x153;" horiz-adv-x="995" d="M41 281q0 81 29 146t94 106.5t158 42.5q129 -1 203 -79q67 77 195 77q229 0 222 -279l-3 -59h-334q2 -122 146 -122q63 0 161 19l19 -121q-81 -26 -189 -26q-144 0 -217 78q-71 -73 -203 -74q-73 1 -128.5 25t-88 65.5t-48.5 92t-16 108.5zM185 281q0 -73 38 -118t99 -45 q68 0 102 44.5t33 118.5q-1 70 -34.5 118.5t-100.5 48.5q-64 0 -100.5 -50t-36.5 -117zM609 345h196q-1 115 -91 117q-48 1 -73.5 -30t-31.5 -87z" />
<glyph unicode="&#x178;" horiz-adv-x="605" d="M4 627h163l138 -256l132 256h164l-221 -398v-229h-154v231zM114 773q0 32 22 54t54 22q33 0 56 -22t23 -54t-23 -54t-56 -22q-32 0 -54 22t-22 54zM345 773q0 32 22.5 54t56.5 22q32 0 54 -22.5t22 -53.5q0 -32 -22 -54t-54 -22q-34 0 -56.5 22t-22.5 54z" />
<glyph unicode="&#x192;" horiz-adv-x="420" d="M-36 -183l11 123q31 -2 56 -1q43 2 56.5 27t15.5 84v391h-91v114h91v21q0 96 53 147.5t160 51.5q41 0 112 -10l-11 -118q-76 10 -108 8q-66 -3 -66 -80v-20h146v-114h-146v-435q0 -193 -211 -193q-33 0 -68 4z" />
<glyph unicode="&#x2c6;" horiz-adv-x="526" d="M45 641l147 204h142l147 -204h-137l-81 115l-81 -115h-137z" />
<glyph unicode="&#x2dc;" horiz-adv-x="501" d="M45 659q0 74 41 113t97 39q41 0 89 -28.5t61 -28.5q22 0 29 12.5t9 35.5h85q0 -76 -35 -114t-93 -38q-30 0 -80.5 28.5t-69.5 28.5q-14 0 -30 -12t-17 -36h-86z" />
<glyph unicode="&#x2013;" horiz-adv-x="600" d="M55 278v92h490v-92h-490z" />
<glyph unicode="&#x2014;" horiz-adv-x="777" d="M55 278v92h667v-92h-667z" />
<glyph unicode="&#x2018;" horiz-adv-x="242" d="M35 538q4 132 129 267l59 -28q-56 -117 -31 -228q6 -42 -12.5 -69t-53.5 -31q-41 -4 -66.5 21t-24.5 68z" />
<glyph unicode="&#x2019;" horiz-adv-x="242" d="M19 451q56 117 31 228q-6 42 12.5 69t53.5 31q41 4 66.5 -21t24.5 -68q-4 -132 -129 -267z" />
<glyph unicode="&#x201a;" horiz-adv-x="317" d="M49 -154q56 117 31 228q-6 42 12.5 69t53.5 31q41 4 66.5 -21t24.5 -68q-4 -132 -129 -267z" />
<glyph unicode="&#x201c;" horiz-adv-x="457" d="M31 544q4 132 129 267l59 -28q-56 -117 -31 -228q6 -42 -12.5 -69t-53.5 -31q-41 -4 -66.5 21t-24.5 68zM259 544q4 132 129 267l59 -28q-56 -117 -31 -228q6 -42 -12.5 -69t-53.5 -31q-41 -4 -66.5 21t-24.5 68z" />
<glyph unicode="&#x201d;" horiz-adv-x="454" d="M9 445q56 117 31 228q-6 42 12.5 69t53.5 31q41 4 66.5 -21t24.5 -68q-4 -132 -129 -267zM237 445q56 117 31 228q-6 42 12.5 69t53.5 31q41 4 66.5 -21t24.5 -68q-4 -132 -129 -267z" />
<glyph unicode="&#x201e;" horiz-adv-x="454" d="M9 -181q56 117 31 228q-6 42 12.5 69t53.5 31q41 4 66.5 -21t24.5 -68q-4 -132 -129 -267zM237 -181q56 117 31 228q-6 42 12.5 69t53.5 31q41 4 66.5 -21t24.5 -68q-4 -132 -129 -267z" />
<glyph unicode="&#x2020;" horiz-adv-x="588" d="M55 441v86l191 -6v207h91v-207l196 6v-86l-196 5v-543h-91v543z" />
<glyph unicode="&#x2021;" horiz-adv-x="588" d="M55 116v86l191 -7v251l-191 -5v86l191 -6v207h91v-207l196 6v-86l-196 5v-251l196 7v-86l-196 5v-218h-91v218z" />
<glyph unicode="&#x2022;" horiz-adv-x="548" d="M65 348q0 86 61 147.5t148 61.5q86 0 147.5 -61.5t61.5 -147.5q0 -87 -61.5 -148t-147.5 -61q-87 0 -148 61t-61 148z" />
<glyph unicode="&#x2026;" horiz-adv-x="981" d="M87 70q0 41 29.5 71t71.5 30q41 0 71 -30t30 -71q0 -42 -30 -71.5t-71 -29.5q-42 0 -71.5 29.5t-29.5 71.5zM387 70q0 41 29.5 71t71.5 30q41 0 71 -30t30 -71q0 -42 -30 -71.5t-71 -29.5q-42 0 -71.5 29.5t-29.5 71.5zM687 70q0 41 29.5 71t71.5 30q41 0 71 -30t30 -71 q0 -42 -30 -71.5t-71 -29.5q-42 0 -71.5 29.5t-29.5 71.5z" />
<glyph unicode="&#x2030;" horiz-adv-x="1034" d="M35 558q0 72 42.5 119.5t119.5 48.5q77 0 119 -47.5t42 -120.5q0 -74 -40 -123.5t-121 -49.5q-79 1 -120.5 50.5t-41.5 122.5zM56 103l559 561l47 -49l-559 -560zM138 558q0 -81 61 -81q60 1 60 81q0 82 -62 82q-59 0 -59 -82zM356 162q0 72 42.5 119.5t119.5 48.5 q77 0 119 -47.5t42 -120.5q0 -74 -40 -123.5t-121 -49.5q-79 1 -120.5 50.5t-41.5 122.5zM459 162q0 -81 61 -81q60 1 60 81q0 82 -62 82q-59 0 -59 -82zM706 162q0 72 42.5 119.5t119.5 48.5q77 0 119 -47.5t42 -120.5q0 -74 -40 -123.5t-121 -49.5q-79 1 -120.5 50.5 t-41.5 122.5zM809 162q0 -81 61 -81q60 1 60 81q0 82 -62 82q-59 0 -59 -82z" />
<glyph unicode="&#x2039;" horiz-adv-x="312" d="M25 299l145 211h134l-149 -211l152 -211h-139z" />
<glyph unicode="&#x203a;" horiz-adv-x="315" d="M5 88l154 211l-149 211h135l145 -211l-143 -211h-142z" />
<glyph unicode="&#x2044;" horiz-adv-x="806" d="M-30 53l759 761l77 -99l-759 -760z" />
<glyph unicode="&#x20ac;" d="M-3 313l10 94h82q9 81 45 142t89 95.5t110.5 51t117.5 16.5q62 0 124 -15l-26 -126q-75 9 -100 9q-56 0 -97.5 -17t-64 -45.5t-33.5 -55t-16 -55.5h291l-10 -94h-282q9 -69 43 -113t76.5 -60.5t96.5 -18.5q52 -1 106 7l28 -126q-69 -12 -133 -12q-89 0 -158.5 27 t-112 73.5t-66.5 102t-30 120.5h-90z" />
<glyph unicode="&#x2122;" horiz-adv-x="814" d="M45 660v68h294v-68h-105v-268h-82v268h-107zM370 392l27 339h87l79 -206l78 206h89l29 -339h-77l-18 228l-66 -181h-71l-65 182l-16 -229h-76z" />
<glyph unicode="&#xe000;" horiz-adv-x="565" d="M0 0v565h565v-565h-565z" />
</font>
</defs>
</svg>
