<?xml version="1.0" standalone="no"?>
<!DOCTYPE svg PUBLIC "-//W3C//DTD SVG 1.1//EN" "http://www.w3.org/Graphics/SVG/1.1/DTD/svg11.dtd" >
<svg xmlns="http://www.w3.org/2000/svg">
<metadata></metadata>
<defs>
<font id="NNMedienMedium" horiz-adv-x="590" >
<font-face units-per-em="1000" ascent="818" descent="-182" />
<missing-glyph horiz-adv-x="211" />
<glyph unicode="&#xfb01;" horiz-adv-x="607" d="M16 471v87h89v27q7 104 77.5 149.5t182.5 44.5q72 0 150 -14l-9 -93q-78 15 -142 13q-71 -2 -109 -24t-38 -77v-26h314v-558h-110v471h-204v-471h-112v471h-89z" />
<glyph unicode="&#xfb02;" horiz-adv-x="635" d="M16 469v88h96v28q0 88 53.5 139t161.5 50q79 0 177 -17l48 -3v-754h-106v673q-90 12 -126 10q-59 -3 -81 -28.5t-22 -70.5v-27h131v-88h-131v-469h-105v469h-96z" />
<glyph unicode="&#xfb03;" horiz-adv-x="914" d="M16 475v82h96v28q0 87 47 137t143 52q26 0 59 -4l-10 -90q-32 4 -57 1q-77 -6 -77 -97v-27h201v28q7 104 77.5 149.5t182.5 44.5q72 0 151 -14l-10 -93q-78 15 -142 13q-71 -2 -109 -24t-38 -77v-26h315v-558h-111v471h-204v-471h-112v474l-201 1v-475h-105v475h-96z" />
<glyph unicode="&#xfb04;" horiz-adv-x="941" d="M16 475v82h96v28q0 87 47 137t143 52q26 0 59 -4l-10 -90q-32 4 -57 1q-77 -6 -77 -97v-27h202v28q0 89 53 139.5t162 49.5q79 0 177 -17l48 -3v-754h-107v673q-90 12 -126 10q-59 -3 -81 -28.5t-22 -70.5v-27h131v-82h-131v-475h-104v475h-202v-475h-105v475h-96z" />
<glyph horiz-adv-x="0" />
<glyph horiz-adv-x="1000" />
<glyph unicode=" "  horiz-adv-x="211" />
<glyph unicode="&#x09;" horiz-adv-x="211" />
<glyph unicode="&#xa0;" horiz-adv-x="211" />
<glyph unicode="!" horiz-adv-x="329" d="M85 60q0 33 23 56.5t56 23.5q34 0 57.5 -23.5t23.5 -56.5q0 -34 -23.5 -57t-57.5 -23q-33 0 -56 23t-23 57zM105 742h118l-12 -505h-95z" />
<glyph unicode="&#x22;" horiz-adv-x="423" d="M54 771h104l-13 -279h-78zM265 771h104l-12 -279h-79z" />
<glyph unicode="#" horiz-adv-x="712" d="M50 175v61h142l-1 156h-141v61h141v172h80l-1 -172h177l1 172h73v-172h142v-61h-142v-156h142v-61h-142l1 -176h-76v176h-177v-176h-76l-1 176h-142zM269 236h177l1 156h-177z" />
<glyph unicode="$" d="M55 21l23 98q74 -17 151 -25v246q-88 47 -128 91t-39 116q2 85 70.5 130t177.5 47v101h68v-103q79 -5 138 -20l-21 -97q-18 4 -117 16v-245q83 -50 119.5 -94t36.5 -104q-1 -66 -38.5 -109.5t-87.5 -60.5t-111 -19v-102h-68l-1 105q-101 7 -173 29zM171 545 q0 -37 28.5 -62.5t102.5 -63.5l8 -5v211q-139 2 -139 -80zM297 89q124 3 124 92q1 30 -26 57.5t-97 66.5z" />
<glyph unicode="%" horiz-adv-x="725" d="M49 558q0 71 42 119t116 49q74 0 116 -48t42 -120q0 -74 -41 -122.5t-117 -48.5q-76 1 -117 49.5t-41 121.5zM68 105l552 553l42 -43l-553 -553zM131 558q0 -98 77 -98q78 0 78 98q0 42 -19 70t-60 28q-76 0 -76 -98zM360 160q0 72 42 119.5t116 48.5q74 0 116 -48 t42 -120q0 -74 -41 -122.5t-117 -48.5q-75 1 -116.5 49.5t-41.5 121.5zM443 160q0 -98 77 -98q77 1 77 98q0 43 -18.5 70.5t-59.5 27.5q-76 0 -76 -98z" />
<glyph unicode="&#x26;" horiz-adv-x="720" d="M46 189q2 109 124 190q-100 81 -99 176q2 76 55 120t138 43q91 -1 136.5 -49t42.5 -119q-6 -104 -128 -184l159 -147q49 66 92 184l91 -37q-20 -59 -53.5 -120t-58.5 -93l164 -153h-139l-87 81q-89 -89 -207 -90q-110 1 -170.5 56.5t-59.5 141.5zM148 191q1 -50 36.5 -76 t88.5 -28q84 0 142 60l-183 173q-85 -60 -84 -129zM169 547q2 -52 82 -122q92 59 92 125q2 37 -22.5 58t-57.5 21q-43 0 -69 -21.5t-25 -60.5z" />
<glyph unicode="'" horiz-adv-x="206" d="M49 771h103l-12 -279h-79z" />
<glyph unicode="(" horiz-adv-x="319" d="M14 325q0 124 45 259.5t129 219.5h112q-88 -69 -142.5 -205t-54.5 -268q0 -130 50 -257t130 -198h-113q-76 86 -116 210t-40 239z" />
<glyph unicode=")" horiz-adv-x="319" d="M19 804h112q84 -84 129 -219.5t45 -259.5q0 -115 -40 -239t-116 -210h-113q80 71 130 198t50 257q0 132 -54.5 268t-142.5 205z" />
<glyph unicode="*" horiz-adv-x="586" d="M65 639l21 68l163 -55l-21 -65zM124 435l105 138l55 -39l-103 -139zM258 833h70l-2 -170h-67zM302 535l54 40l101 -137l-56 -42zM337 654l161 54l23 -67l-163 -51z" />
<glyph unicode="+" d="M46 273v88h204v207h89v-207h204v-88h-204v-211h-89v211h-204z" />
<glyph unicode="," horiz-adv-x="309" d="M56 -141q47 100 30 201q-6 35 11.5 59.5t47.5 26.5q35 2 56 -19t20 -59q-2 -48 -31 -110.5t-83 -121.5z" />
<glyph unicode="-" horiz-adv-x="496" d="M75 276v77h346v-77h-346z" />
<glyph unicode="." horiz-adv-x="347" d="M89 60q0 35 24.5 59.5t59.5 24.5t60 -24.5t25 -59.5q0 -36 -25 -60.5t-60 -24.5t-59.5 24.5t-24.5 60.5z" />
<glyph unicode="/" horiz-adv-x="467" d="M22 -89l308 850l101 1l-308 -851h-101z" />
<glyph unicode="0" d="M33 345q0 104 26 184t87 131t151 51q70 -1 122 -29.5t81.5 -80t43.5 -115t14 -141.5q0 -161 -66.5 -259.5t-197.5 -99.5q-131 1 -196 99t-65 260zM151 345q0 -51 7 -94t22.5 -81t44.5 -59.5t69 -22.5q54 0 88.5 39.5t46.5 93.5t12 124q0 52 -7 96t-22.5 83.5t-45 63 t-70.5 24.5q-41 -1 -70.5 -24.5t-45 -63t-22.5 -83.5t-7 -96z" />
<glyph unicode="1" d="M84 598l194 109h97v-611h131v-96h-384v96h141v489l-131 -72z" />
<glyph unicode="2" d="M72 0v87q23 23 63 62t58.5 57.5t49 50t45 48.5t35.5 42t30.5 42t20 38t14 40t3.5 38q0 110 -137 110q-57 0 -153 -21l-19 99q100 22 171 23q58 1 104 -12t73.5 -34t45 -49t23.5 -54t6 -52q-1 -84 -51 -162.5t-155 -180.5q-37 -36 -79 -69h293v-103h-441z" />
<glyph unicode="3" d="M69 15l22 95q81 -18 161 -20q148 -3 149 102q0 22 -7 42t-25 41t-58 33.5t-98 12.5h-55v95h49q54 1 90 11.5t52.5 29t22 34.5t5.5 37q0 89 -137 89q-57 0 -147 -18l-17 94q87 22 163 23q128 3 190.5 -49.5t60.5 -135.5q1 -50 -28.5 -94t-86.5 -64q72 -24 105.5 -73.5 t31.5 -113.5q-1 -24 -6 -46.5t-22.5 -51t-44.5 -49.5t-75.5 -35t-112.5 -13q-83 1 -182 24z" />
<glyph unicode="4" d="M27 198v80l288 434h141v-425h102v-89h-102v-198h-104v198h-325zM139 285h214v329z" />
<glyph unicode="5" d="M77 17l23 99q92 -23 179 -23q38 0 64.5 11t39.5 29.5t18 36.5t5 38q0 68 -48 93t-151 25h-95v377h380v-104h-278v-183q63 7 117 -1t97.5 -30.5t68 -66.5t24.5 -105q0 -38 -10.5 -73t-36 -71t-76.5 -57t-123 -21q-106 0 -198 26z" />
<glyph unicode="6" d="M58 268.5q-1 20.5 0 42.5q1 46 7 88.5t19 90.5t37 87t58 71t85.5 50t116.5 18q67 0 128 -15l-20 -92q-66 13 -110 12q-48 -1 -85 -17t-60 -40t-38 -57t-21 -64t-7 -65q57 52 156 52q104 0 159.5 -60.5t55.5 -155.5q0 -99 -64.5 -162t-170.5 -63q-50 0 -90.5 14 t-65.5 35.5t-43.5 53t-27.5 60t-13.5 62.5t-5.5 54.5zM168 277q0 -31 4 -58.5t16 -61t42 -53.5t74 -20q60 0 93 36t33 94q0 54 -26 88t-83 34q-39 0 -81.5 -14.5t-71.5 -44.5z" />
<glyph unicode="7" d="M58 611v99h459v-92l-261 -619h-116l265 612h-347z" />
<glyph unicode="8" d="M54 180q-1 60 36.5 109t100.5 74q-55 24 -87.5 70t-32.5 107q0 86 66.5 133.5t155.5 47.5q113 0 167.5 -55t53.5 -126q0 -60 -34 -103t-88 -65q144 -62 142 -195q-1 -32 -13 -62.5t-38.5 -59.5t-76 -46.5t-117.5 -17.5q-68 1 -117 20t-72.5 49.5t-34 59.5t-11.5 60z M157 183q3 -52 41.5 -76.5t92.5 -24.5q57 0 96 23.5t42 78.5q0 31 -14 56.5t-37.5 42t-47.5 26t-49 15.5q-56 -16 -91.5 -53t-32.5 -88zM174 536q0 -88 123 -130q112 38 112 128q0 51 -33.5 74.5t-82.5 23.5q-47 0 -83 -24t-36 -72z" />
<glyph unicode="9" d="M51 491q3 103 69.5 165t169.5 59q57 -2 100.5 -21t69 -51.5t42.5 -67t23.5 -75.5t8.5 -68t1 -54q-5 -383 -288 -386q-77 -2 -138 15l15 90q65 -10 112 -9q97 2 139 61.5t48 160.5q-60 -46 -157 -42q-101 2 -159.5 65t-55.5 158zM161 486q-1 -55 29.5 -90.5t87.5 -36.5 q86 -2 147 46q1 17 0 33.5t-4.5 43t-13 48.5t-23.5 43t-39.5 33t-58.5 13q-61 1 -92 -35t-33 -98z" />
<glyph unicode=":" horiz-adv-x="359" d="M95 492q0 36 24 60.5t60 24.5q35 0 60 -25t25 -60q0 -36 -24.5 -60t-60.5 -24t-60 24t-24 60zM96 62q0 35 24 59.5t60 24.5q35 0 60 -24.5t25 -59.5q0 -36 -25 -60.5t-60 -24.5q-36 0 -60 24.5t-24 60.5z" />
<glyph unicode=";" horiz-adv-x="356" d="M83 -141q47 100 30 201q-6 35 11.5 59.5t47.5 26.5q35 2 56 -19t20 -59q-2 -48 -31 -110.5t-83 -121.5zM92 492q0 35 24.5 60t60.5 25q35 0 59.5 -25t24.5 -60q0 -36 -24.5 -60t-59.5 -24q-36 0 -60.5 24t-24.5 60z" />
<glyph unicode="&#x3c;" d="M58 281v65l475 222v-98l-358 -156l358 -159v-97z" />
<glyph unicode="=" d="M47 171v86h497v-86h-497zM47 378v86h497v-86h-497z" />
<glyph unicode="&#x3e;" d="M58 57v97l358 159l-358 156v98l475 -222v-65z" />
<glyph unicode="?" horiz-adv-x="464" d="M38 690q99 23 168 24q65 2 112.5 -15.5t71 -47t34 -59t10.5 -59.5q0 -74 -48.5 -123.5t-115.5 -71.5l-3 -107h-99l-4 163q81 27 120.5 57t39.5 80q-1 88 -117 88q-59 0 -151 -20zM139 60q0 34 23.5 58t57.5 24t58 -24t24 -58t-24 -58t-58 -24t-57.5 23.5t-23.5 58.5z" />
<glyph unicode="@" horiz-adv-x="856" d="M89 312q0 74 22 139.5t64 117t109.5 81t152.5 29.5q161 0 246 -89.5t83 -216.5q-1 -114 -62 -170.5t-159 -58.5l-110 -1q-68 0 -106 32.5t-38 84.5q0 103 138 112l58 3v25q0 31 -15.5 43t-51.5 12q-29 0 -86 -15l-18 60q55 20 104 20q40 0 68 -10t41.5 -21.5t20.5 -33 t7.5 -31.5t0.5 -31v-182q59 1 94.5 40t35.5 122q1 42 -11.5 81.5t-40 76t-80 58.5t-122.5 22q-72 0 -126 -26.5t-83.5 -70.5t-43.5 -94.5t-14 -106.5q0 -127 79 -204.5t206 -81.5q116 0 194 55l35 -58q-47 -37 -117 -53.5t-120 -12.5q-158 5 -256.5 99t-98.5 255zM359 259 q0 -50 68 -50h60v106q-5 0 -26 -1t-25 -1q-31 -1 -54 -14t-23 -40z" />
<glyph unicode="A" horiz-adv-x="662" d="M4 0l263 726h120l270 -726h-117l-65 185h-293l-62 -185h-116zM215 286h225l-114 326z" />
<glyph unicode="B" horiz-adv-x="634" d="M92 0v724l211 2h9q104 0 169 -46q68 -48 68 -141q0 -51 -26 -94.5t-77 -62.5q56 -21 88 -67.5t32 -108.5q0 -103 -67 -155t-191 -52zM200 93h93q85 0 124 28t39 91q0 120 -154 120h-102v-239zM200 424h98q69 0 107.5 28.5t37.5 81.5q0 55 -39 77q-37 21 -108 21h-7 q-50 0 -89 -1v-207z" />
<glyph unicode="C" horiz-adv-x="643" d="M62 356q0 165 90 270.5t261 105.5q93 0 181 -28l-28 -97q-93 23 -156 23q-66 0 -113.5 -23.5t-73 -64.5t-37 -86.5t-11.5 -99.5q0 -53 12.5 -99t39 -84.5t72.5 -61t107 -22.5h6q78 0 166 24l22 -94q-88 -31 -194 -31q-174 0 -259 100.5t-85 267.5z" />
<glyph unicode="D" horiz-adv-x="721" d="M92 0v722q98 4 202 4q177 0 271.5 -99t94.5 -268q0 -162 -93.5 -261.5t-262.5 -99.5q-66 0 -212 2zM204 95q11 -1 86 -1q127 0 193 71.5t66 193.5q0 132 -69.5 201t-201.5 69q-24 0 -74 -2v-532z" />
<glyph unicode="E" horiz-adv-x="578" d="M92 0v725h432v-99h-319v-192h285v-102h-285v-231h319v-101h-432z" />
<glyph unicode="F" horiz-adv-x="572" d="M92 0v724h432v-100h-318v-199h290v-99h-290v-326h-114z" />
<glyph unicode="G" horiz-adv-x="703" d="M62 356q0 163 95.5 269.5t270.5 106.5q97 0 197 -26l-26 -99q-88 23 -172 23q-67 0 -117 -23.5t-78.5 -64t-42 -87.5t-13.5 -99q0 -113 61.5 -190t184.5 -77q60 0 112 13v204h-154v99h260v-378q-93 -37 -218 -37q-176 0 -268 101.5t-92 264.5z" />
<glyph unicode="H" horiz-adv-x="721" d="M92 0v725h111v-293h316v293h110v-725h-110v329h-316v-329h-111z" />
<glyph unicode="I" horiz-adv-x="423" d="M68 0v89h90v546h-88v90h283v-90h-86v-546h88v-89h-287z" />
<glyph unicode="J" horiz-adv-x="453" d="M55 -5l13 99q32 -4 62 -4h19q68 3 89.5 39t21.5 121v474h111v-485q0 -125 -48.5 -186.5t-168.5 -64.5q-51 0 -99 7z" />
<glyph unicode="K" horiz-adv-x="650" d="M92 0v725h112v-331l273 331h140l-251 -307l280 -418h-134l-226 338l-82 -97v-241h-112z" />
<glyph unicode="L" horiz-adv-x="561" d="M92 0v725h112v-622h314v-103h-426z" />
<glyph unicode="M" horiz-adv-x="940" d="M78 0l52 724h125l214 -563l213 563h126l54 -724h-118l-28 523l-200 -523h-94l-200 524l-28 -524h-116z" />
<glyph unicode="N" horiz-adv-x="754" d="M95 0v725h106l350 -531v531h109v-725h-108l-348 528v-528h-109z" />
<glyph unicode="O" horiz-adv-x="787" d="M62 356q0 78 20.5 145.5t60.5 120t104.5 82.5t146.5 30q108 0 184 -53t111 -137t35 -188q0 -160 -88.5 -265.5t-241.5 -105.5q-154 0 -243 105.5t-89 265.5zM176 356q0 -113 56 -192t161 -79q106 0 162 79t56 192q0 117 -55 198t-163 81q-75 0 -125.5 -42t-71 -102.5 t-20.5 -134.5z" />
<glyph unicode="P" horiz-adv-x="616" d="M92 0v724h113t91 1h5q125 0 193 -53q70 -54 69 -167q0 -119 -66.5 -178.5t-191.5 -59.5h-99v-267h-114zM206 364h95q84 0 118.5 35t34.5 103q0 69 -37.5 96.5t-120.5 27.5h-42q-14 0 -23 1q-20 0 -25 -1v-262z" />
<glyph unicode="Q" horiz-adv-x="810" d="M66 359q0 163 85.5 270.5t246.5 107.5q108 0 184 -53t111 -137t35 -188q0 -119 -50 -210.5t-141 -132.5q42 -63 116 -86q68 -22 185 -22h20v-97h-24q-144 0 -237 34q-101 37 -168 145q-20 -2 -31 -2q-154 0 -243 105.5t-89 265.5zM180 359q0 -113 56 -192t161 -79 q106 0 162 79t56 192q0 75 -21.5 136t-72.5 102t-124 41q-75 0 -125.5 -42t-71 -102.5t-20.5 -134.5z" />
<glyph unicode="R" horiz-adv-x="647" d="M92 0v724q78 1 200 1h9q117 0 183 -51q71 -54 71 -163q-1 -79 -37 -133q-38 -56 -106 -78l207 -300h-132l-184 280h-101v-280h-110zM202 375h94q80 1 116 37q34 35 34 93v7q-1 117 -149 117h-5h-90v-254z" />
<glyph unicode="S" horiz-adv-x="571" d="M59 538v7q-1 17 3 35q4 22 19.5 50t39 50t65.5 36.5t97 14.5q96 -1 202 -31l-23 -98q-103 26 -180 27q-113 0 -113 -84q0 -45 76 -91q18 -11 76 -42q100 -52 147 -104q46 -51 46 -127q0 -28 -5 -50.5t-21 -49.5t-41.5 -46.5t-71 -32.5t-105.5 -13q-107 0 -209 35l28 97 q106 -30 182 -30q61 -1 93 23q34 25 34 69q0 37 -36 68q-38 33 -134 83q-82 42 -124.5 88.5t-44.5 115.5z" />
<glyph unicode="T" horiz-adv-x="565" d="M23 621v101h518v-101h-201v-621h-116v621h-201z" />
<glyph unicode="U" horiz-adv-x="718" d="M85 263v462h111v-450q0 -187 168 -187q82 0 119.5 44.5t37.5 142.5v450h112v-462q0 -274 -268 -274q-135 0 -207.5 69t-72.5 205z" />
<glyph unicode="V" horiz-adv-x="670" d="M16 725h123l194 -577l197 577h125l-266 -728h-113z" />
<glyph unicode="W" horiz-adv-x="941" d="M16 725h120l127 -557l149 557h117l154 -556q9 38 34 154.5t53.5 246.5t33.5 155h121l-182 -725h-117l-156 554l-151 -554h-118z" />
<glyph unicode="X" horiz-adv-x="656" d="M12 0l248 374l-226 351h134l158 -256l160 256h134l-229 -344l251 -381h-133l-182 284l-181 -284h-134z" />
<glyph unicode="Y" horiz-adv-x="603" d="M11 725h122l169 -344l168 344h122l-234 -455v-270h-114v271z" />
<glyph unicode="Z" horiz-adv-x="610" d="M46 0v88l372 531h-350v103h496v-84l-375 -536h369v-102h-512z" />
<glyph unicode="[" horiz-adv-x="258" d="M12 -139v919h226v-79h-135v-760h135v-80h-226z" />
<glyph unicode="\" horiz-adv-x="467" d="M29 762l101 -1l308 -850h-101z" />
<glyph unicode="]" horiz-adv-x="258" d="M20 -59h134v760h-134v79h226v-919h-226v80z" />
<glyph unicode="^" horiz-adv-x="833" />
<glyph unicode="_" horiz-adv-x="600" d="M64 -33h472v-74h-472v74z" />
<glyph unicode="`" horiz-adv-x="328" d="M45 840h122l116 -203l-100 -1z" />
<glyph unicode="a" horiz-adv-x="569" d="M40 147v9q0 42 16 74q18 36 49.5 55t64.5 28.5t71 11.5l118 6q0 47 -1 52q-1 58 -26.5 76t-87.5 18q-54 0 -155 -19l-15 93q88 22 170 23h10q39 0 71 -7q36 -8 59 -19.5t39 -31t24 -35t12 -37.5t4.5 -33t0.5 -28v-230q1 -35 16.5 -48.5t48.5 -17.5l-11 -92 q-114 3 -143 53q-55 -57 -138 -58h-11q-86 0 -134 42q-50 46 -52 115zM150 153q1 -37 28 -54.5t69 -17.5q68 1 115 48v115q-90 -6 -112 -6q-100 -8 -100 -85z" />
<glyph unicode="b" horiz-adv-x="618" d="M92 17v746h108v-221q54 30 120 32h6q118 0 176 -80q60 -82 60 -208t-64 -211.5t-191 -85.5q-87 0 -215 28zM200 94q66 -9 106 -9q78 0 114.5 56t36.5 145q0 82 -36 136t-113 54q-50 0 -108 -31v-351z" />
<glyph unicode="c" horiz-adv-x="519" d="M56 285q2 124 75 206t206 82q67 0 142 -19l-19 -95q-63 14 -120 14q-83 -1 -128 -54.5t-47 -133.5q0 -40 8.5 -73t27 -62.5t53.5 -46t84 -16.5q57 0 128 15l14 -96q-66 -18 -142 -18q-282 0 -282 297z" />
<glyph unicode="d" horiz-adv-x="628" d="M59 280q1 56 15.5 106.5t43 93t78.5 68t115 26.5q70 0 116 -22v210h109v-762h-109v28q-51 -38 -127 -38q-111 0 -177 80q-64 78 -64 202v8zM168 280v-15q0 -71 34 -121q38 -56 105.5 -56t119.5 42v323q-45 21 -109 21q-72 0 -109 -53t-41 -141z" />
<glyph unicode="e" horiz-adv-x="572" d="M56 285q0 124 61 205.5t191 81.5q93 0 152 -62t60 -190l-1 -59h-354q2 -84 46 -130.5t126 -46.5q68 0 151 19l17 -91q-74 -25 -173 -25q-276 0 -276 298zM170 347h247q-5 137 -114 137h-3q-58 0 -90 -36t-40 -101z" />
<glyph unicode="f" horiz-adv-x="412" d="M16 469v88h96v28q0 87 47 137t143 52q47 0 110 -9l-10 -90q-57 7 -89 7q-11 0 -19 -1q-77 -6 -77 -97v-27h156v-88h-156v-469h-105v469h-96z" />
<glyph unicode="g" horiz-adv-x="611" d="M51 315q0 116 65 187t182 71q94 0 222 -23v-506q0 -229 -226 -229q-97 0 -180 24l19 92q92 -20 155 -21h4q68 0 94 34q27 35 27 112v49q-47 -42 -128 -42q-116 0 -175 73t-59 179zM162 315q0 -160 132 -162q67 2 118 43v271q-67 13 -114 13q-67 0 -101.5 -46t-34.5 -119z " />
<glyph unicode="h" horiz-adv-x="642" d="M92 0v762h111v-246q73 57 163 58h8q35 0 63 -8q31 -8 50.5 -20t33.5 -33t20.5 -36.5t9.5 -41t3.5 -36t0.5 -31.5v-368h-112v358q0 66 -19.5 92t-64.5 26q-76 0 -156 -55v-421h-111z" />
<glyph unicode="i" horiz-adv-x="301" d="M76 737q0 31 21.5 53t52.5 22t53 -22t22 -53q0 -30 -22 -52t-53 -22t-52.5 22t-21.5 52zM95 0v560h110v-560h-110z" />
<glyph unicode="j" horiz-adv-x="299" d="M-41 -180l9 96q14 -2 29 -2t30 2q45 4 59.5 33t14.5 95v516h110v-564q0 -175 -183 -180h-17q-25 0 -52 4zM84 737q0 31 21.5 53t51.5 22q31 0 53 -22t22 -53q0 -30 -22 -52t-53 -22q-30 0 -51.5 22t-21.5 52z" />
<glyph unicode="k" horiz-adv-x="571" d="M90 0v762h107v-449l212 250h136l-200 -231l215 -332h-130l-159 257l-74 -84v-173h-107z" />
<glyph unicode="l" horiz-adv-x="271" d="M82 0v764h107v-764h-107z" />
<glyph unicode="m" horiz-adv-x="930" d="M92 0v563h111v-48q73 58 147 59h3q105 0 145 -68q33 31 79 49t87 19h6q48 0 84 -15q38 -16 55.5 -37.5t27.5 -54.5t11.5 -52.5t1.5 -46.5v-368h-111v360q0 65 -22.5 90.5t-68.5 25.5q-56 0 -123 -55q3 -18 3 -43v-378h-112v364q0 66 -19.5 89.5t-64.5 23.5 q-54 0 -129 -56v-421h-111z" />
<glyph unicode="n" horiz-adv-x="642" d="M92 0v563h111v-47q81 57 163 58h8q35 0 63 -8q31 -8 50.5 -20t33.5 -33t20.5 -36.5t9.5 -41t3.5 -36t0.5 -31.5v-368h-112v358q0 66 -20 92t-64 26q-76 0 -156 -55v-421h-111z" />
<glyph unicode="o" horiz-adv-x="633" d="M56 281q0 126 66.5 208.5t194.5 83.5q128 -1 194 -83.5t66 -208.5q0 -60 -14 -110.5t-44 -91.5t-81.5 -65t-121.5 -24q-68 1 -119.5 24.5t-81.5 64.5t-44.5 91.5t-14.5 110.5zM163 281q0 -85 38.5 -140t115.5 -55q80 1 116 55.5t36 139.5q-1 80 -38 138t-115 58 q-76 -1 -114.5 -59t-38.5 -137z" />
<glyph unicode="p" horiz-adv-x="632" d="M92 -185v748h111v-45q62 55 147 55q111 0 168 -78q54 -75 54 -199v-9q-1 -56 -14.5 -106t-42 -94t-79 -70.5t-118.5 -27.5h-8q-56 0 -107 14v-188h-111zM203 101q60 -15 98 -15h5q77 1 115.5 57.5t42.5 143.5v18q0 73 -28 120q-33 53 -104 53q-66 0 -129 -55v-322z" />
<glyph unicode="q" horiz-adv-x="621" d="M54 279q0 127 64 210.5t192 83.5q91 0 219 -24v-729h-113v218q-49 -47 -125 -49q-78 0 -133 40t-79.5 104.5t-24.5 145.5zM167 279q0 -86 33 -139t108 -53q59 0 108 47v332q-60 10 -107 10q-75 0 -108.5 -55t-33.5 -142z" />
<glyph unicode="r" horiz-adv-x="443" d="M92 0v563h111v-50q54 56 130 57h10q42 0 83 -15l-20 -95q-33 8 -72 8q-32 0 -59.5 -10t-41 -21t-30.5 -29v-408h-111z" />
<glyph unicode="s" horiz-adv-x="495" d="M66 472q8 23 28 48.5t62 40.5q37 13 87 13h13q82 -2 160 -22l-19 -92q-82 20 -146 21q-84 0 -87 -60v-2q0 -25 22 -43q23 -18 81 -43q30 -12 40.5 -17t38.5 -19t40.5 -26.5t29 -31.5t22.5 -43q5 -21 5 -44v-8q-3 -66 -51 -111q-47 -44 -148 -44h-4q-112 2 -182 27l23 93 q94 -24 159 -24q88 0 92 62q1 10 -2 19.5t-6 16t-12 14t-14.5 11.5t-19 10.5t-20 9.5t-23.5 10t-24 10q-71 30 -113 68q-41 38 -41 106q-1 24 9 50z" />
<glyph unicode="t" horiz-adv-x="430" d="M30 471v77l81 9v131h110v-125h153v-92h-153v-273q0 -49 12.5 -74t52.5 -31q11 -1 24 -1q31 0 73 5l7 -96q-38 -7 -99 -7q-180 7 -180 177v300h-81z" />
<glyph unicode="u" horiz-adv-x="624" d="M86 182v381h109v-365q0 -67 20.5 -91t64.5 -25h8q74 0 136 54v427h108v-563h-108v41q-60 -52 -139 -52h-6q-53 0 -91 16q-40 17 -59 38.5t-29.5 53.5t-12 48t-1.5 37z" />
<glyph unicode="v" horiz-adv-x="567" d="M16 563h125l142 -438q9 28 70.5 214.5t72.5 223.5h126l-208 -567h-120z" />
<glyph unicode="w" horiz-adv-x="788" d="M18 563h119l83 -422l119 422h107l118 -424l88 424h118l-146 -568h-114l-118 423l-119 -423h-113z" />
<glyph unicode="x" horiz-adv-x="587" d="M27 0l208 290l-193 273h131l123 -184l126 184h130l-197 -274l206 -289h-131l-136 200l-136 -200h-131z" />
<glyph unicode="y" horiz-adv-x="567" d="M18 563h123l143 -397q7 19 69.5 190t74.5 207h119l-287 -747h-114l85 214z" />
<glyph unicode="z" horiz-adv-x="527" d="M50 0v81l286 387h-272v92h413v-78l-287 -387h281v-95h-421z" />
<glyph unicode="{" horiz-adv-x="354" d="M5 298v68q49 4 78.5 33.5t29.5 68.5v119q0 96 59.5 148.5t162.5 54.5l-3 -79q-134 -8 -134 -123v-116q0 -98 -81 -140q81 -38 81 -149v-134q0 -107 125 -118l2 -73q-102 2 -156.5 52t-54.5 140v137q0 43 -30 75.5t-79 35.5z" />
<glyph unicode="|" horiz-adv-x="319" d="M112 -130v949h93v-949h-93z" />
<glyph unicode="}" horiz-adv-x="354" d="M20 790q103 -2 162.5 -54t59.5 -148v-120q0 -38 29.5 -68t77.5 -34v-68q-48 -2 -78 -34.5t-30 -75.5v-137q0 -90 -54.5 -140.5t-156.5 -51.5l1 73q125 9 125 117v134q0 112 81 150q-80 42 -80 140v116q0 61 -38 90.5t-96 32.5z" />
<glyph unicode="~" d="M15 220q0 47 6 83.5t22.5 71t49.5 53t82 18.5q38 0 77.5 -24.5t66.5 -53.5t58 -53.5t53 -24.5q9 0 17 2.5t13 8.5t9 12t6.5 16t4 17.5t2 19.5t1 19t0.5 20v18h90q2 -108 -31.5 -163.5t-117.5 -55.5q-32 0 -65 16t-58.5 38.5t-49 45t-45.5 38.5t-39 16q-60 0 -63 -132v-6 h-89z" />
<glyph unicode="&#xa1;" horiz-adv-x="338" d="M85 497q0 35 24 59.5t60 24.5q35 0 60 -24.5t25 -59.5t-25 -60t-60 -25q-36 0 -60 24.5t-24 60.5zM105 -186l12 505h95l11 -505h-118z" />
<glyph unicode="&#xa2;" d="M61 352q2 113 65 193.5t190 96.5v127h73v-124q70 -2 136 -14l-15 -95q-50 9 -121 14v-401q58 0 126 16l14 -95q-75 -17 -140 -18v-128h-73v130q-72 7 -123.5 34t-79.5 69t-40 90t-12 105zM173 352q1 -175 143 -199v391q-75 -14 -109 -66t-34 -126z" />
<glyph unicode="&#xa3;" d="M45 322v77h96v120q2 92 64 143t158 53q97 0 170 -55l-50 -74q-66 37 -123 35q-48 -2 -77.5 -29.5t-29.5 -80.5v-112h238v-77h-238v-138q-2 -57 -25 -91h311v-93h-480l8 93q42 3 57.5 25t16.5 61v143h-96z" />
<glyph unicode="&#xa5;" d="M21 700h121l154 -320l152 320h122l-160 -304h142v-74h-182l-18 -34v-288h-113v286l-19 36h-180v74h141z" />
<glyph unicode="&#xa6;" horiz-adv-x="319" d="M120 -121v416h79v-416h-79zM120 472v347h79v-347h-79z" />
<glyph unicode="&#xa7;" horiz-adv-x="505" d="M55 427h82q2 -11 4 -19.5t6 -17t6.5 -14t10 -14.5t10.5 -13t15 -14t17 -14.5t22 -18.5t25 -21q20 -17 53 -42t50 -39.5t37 -35.5t29.5 -43.5t11.5 -49.5t-6 -53.5t-27.5 -51t-58.5 -39.5t-93 -15q-86 0 -184 30l21 91q101 -28 164 -28q40 0 60 18t19 48q0 18 -19 41.5 t-40 40.5t-55.5 43t-46.5 36q-41 34 -60.5 54.5t-36 57.5t-16.5 83zM69 614q0 25 8 49t27 49.5t57.5 41t92.5 15.5q86 0 184 -30l-21 -91q-101 28 -164 28q-77 0 -77 -67q0 -17 19 -40.5t39.5 -40.5t55 -43.5t45.5 -35.5q41 -34 60.5 -54.5t36 -57.5t16.5 -84h-82 q-2 11 -4 19.5t-6 17.5t-6.5 14.5t-10 14t-10.5 12.5t-15 15t-17 15t-22 18t-25 21q-20 17 -53.5 42.5t-51.5 40.5t-38 36.5t-29 44.5t-9 50z" />
<glyph unicode="&#xa8;" horiz-adv-x="454" d="M45 726q0 28 19.5 47.5t47.5 19.5q29 0 49 -19.5t20 -47.5t-20 -47.5t-49 -19.5q-28 0 -47.5 19.5t-19.5 47.5zM274 726q0 28 19.5 47.5t48.5 19.5q28 0 47.5 -19.5t19.5 -47.5t-19.5 -47.5t-47.5 -19.5q-29 0 -48.5 19t-19.5 48z" />
<glyph unicode="&#xa9;" horiz-adv-x="906" d="M60 353q0 169 112.5 278t280.5 109q166 0 279.5 -109t113.5 -278q0 -172 -109.5 -280t-283.5 -108q-175 0 -284 108t-109 280zM135 353q0 -144 89 -230.5t229 -86.5q142 0 229 86t87 231q0 142 -91 230t-225 88q-135 0 -226.5 -88t-91.5 -230zM259 356q0 -97 55.5 -154 t155.5 -57q57 0 124 23l-18 72q-61 -18 -106 -18q-61 1 -92 38.5t-31 95.5q1 56 30.5 90.5t91.5 34.5q37 0 99 -13l17 73q-63 17 -116 17q-98 0 -153 -53.5t-57 -148.5z" />
<glyph unicode="&#xaa;" horiz-adv-x="416" d="M54 250v54h319v-54h-319zM55 484q-2 47 31.5 75.5t83.5 32.5l71 5v19q0 56 -64 56q-39 0 -89 -12l-15 60q49 13 104 13q39 1 66.5 -9t40 -22.5t19.5 -33.5t8 -32t1 -27v-125q0 -36 42 -42l-11 -55q-72 2 -91 43q-27 -41 -83 -42q-59 0 -86 28t-28 68zM125 490 q0 -44 52 -44q40 2 65 28v69l-63 -5q-54 -5 -54 -48z" />
<glyph unicode="&#xab;" horiz-adv-x="497" d="M111 299l142 206h106l-144 -206l143 -202h-110zM296 299l141 206h107l-144 -206l145 -202h-113z" />
<glyph unicode="&#xac;" d="M47 276v86h497l-2 -265h-85v179h-410z" />
<glyph unicode="&#xae;" horiz-adv-x="776" d="M55 489q0 143 95.5 235t237.5 92t237.5 -92t95.5 -235q0 -146 -92.5 -237.5t-240.5 -91.5t-240.5 91.5t-92.5 237.5zM123 489q0 -121 74 -193t191 -72t190.5 72.5t73.5 192.5q0 118 -76 191t-188 73q-114 0 -189.5 -71.5t-75.5 -192.5zM270 324h65v130h34l93 -130h76 l-100 142q78 19 79 102q0 38 -22 62t-49.5 31.5t-61.5 8.5q-76 0 -114 -1v-345zM335 513v100q9 1 44 1q72 0 72 -45q1 -32 -19 -44t-52 -12h-45z" />
<glyph unicode="&#xaf;" horiz-adv-x="473" d="M45 687v74h383v-74h-383z" />
<glyph unicode="&#xb0;" horiz-adv-x="517" d="M79 634q0 73 51.5 123.5t128.5 50.5t128 -50.5t51 -123.5q0 -75 -51 -125t-128 -50q-78 0 -129 50t-51 125zM164 634q0 -46 26.5 -74.5t69.5 -28.5t69.5 28t26.5 75q0 45 -26.5 73t-69.5 28t-69.5 -28.5t-26.5 -72.5z" />
<glyph unicode="&#xb1;" d="M47 1v86h497v-86h-497zM48 273v88h204v207h89v-207h204v-88h-204v-131h-89v131h-204z" />
<glyph unicode="&#xb2;" horiz-adv-x="305" d="M27 392v58q11 9 30 25q50 42 71 61t37.5 42.5t16.5 44.5q0 47 -61 47q-29 0 -82 -11l-11 62q53 11 94 11q67 1 99 -28.5t32 -70.5q0 -85 -135 -179h146v-62h-237z" />
<glyph unicode="&#xb3;" horiz-adv-x="305" d="M34 403l13 56q47 -11 81 -11q67 0 67 41q0 19 -20 34t-68 14h-24v54h24q73 1 73 46q0 35 -58 35q-28 0 -75 -10l-10 58q48 12 84 12q63 1 96.5 -22t32.5 -66q0 -28 -18 -49.5t-43 -26.5q36 -7 55 -31t18 -53q-1 -42 -33.5 -70.5t-101.5 -27.5q-53 2 -93 17z" />
<glyph unicode="&#xb4;" horiz-adv-x="328" d="M45 636l116 204h122l-137 -204h-101z" />
<glyph unicode="&#xb6;" horiz-adv-x="663" d="M42 542q0 178 226 178h360v-57h-79v-750h-78v750h-85v-749h-81v432h-46q-217 0 -217 196z" />
<glyph unicode="&#xb7;" horiz-adv-x="362" d="M99 319q0 35 24.5 59.5t59.5 24.5t60 -24.5t25 -59.5q0 -36 -25 -60.5t-60 -24.5t-59.5 24.5t-24.5 60.5z" />
<glyph unicode="&#xb8;" horiz-adv-x="304" d="M32 -118q35 5 53 10t36 18t24.5 37t3.5 63h83q2 -40 -4 -71t-24 -62.5t-59.5 -50t-104.5 -20.5z" />
<glyph unicode="&#xb9;" horiz-adv-x="305" d="M34 673l98 56h73v-279h60v-58h-199v58h71v212l-75 -42z" />
<glyph unicode="&#xba;" horiz-adv-x="424" d="M53 562q0 74 42 121.5t118 48.5q77 0 118 -47.5t41 -122.5q0 -76 -41.5 -125t-117.5 -49q-79 1 -119.5 49.5t-40.5 124.5zM54 250v54h319v-54h-319zM132 562q0 -112 82 -112q43 1 61 34t18 78q0 40 -19.5 72.5t-60.5 32.5q-43 -1 -62 -32t-19 -73z" />
<glyph unicode="&#xbb;" horiz-adv-x="497" d="M-34 97l145 202l-144 206h107l142 -206l-137 -202h-113zM152 505h107l141 -206l-136 -202h-111l143 202z" />
<glyph unicode="&#xbc;" horiz-adv-x="688" d="M44 673l98 56h73v-279h60v-58h-200v58h72v212l-75 -42zM50 105l553 553l41 -43l-553 -553zM325 79v48l138 213h91v-203h52v-58h-52v-78h-65v78h-164zM399 137h90v146z" />
<glyph unicode="&#xbd;" horiz-adv-x="708" d="M44 673l98 56h73v-279h60v-58h-200v58h72v212l-75 -42zM53 105l552 553l42 -43l-553 -553zM428 1v58q11 9 30 25q50 42 71 61t37.5 42.5t16.5 44.5q0 47 -61 47q-29 0 -82 -11l-12 62q53 11 95 11q67 1 98.5 -28.5t31.5 -70.5q0 -86 -134 -179h145v-62h-236z" />
<glyph unicode="&#xbe;" horiz-adv-x="682" d="M44 105l553 553l41 -43l-553 -553zM62 403l13 56q47 -11 81 -11q67 0 67 41q0 19 -20 34t-68 14h-24v54h24q74 1 74 46q0 35 -59 35q-27 0 -74 -10l-11 58q48 12 84 12q63 1 96.5 -22t32.5 -66q0 -28 -18 -49.5t-43 -26.5q36 -7 55 -31t18 -53q-1 -42 -33.5 -70.5 t-101.5 -27.5q-53 2 -93 17zM319 79v48l138 213h91v-203h52v-58h-52v-78h-65v78h-164zM393 137h90v146z" />
<glyph unicode="&#xbf;" horiz-adv-x="464" d="M30 10q0 74 48.5 124t114.5 71l4 107h99l4 -162q-83 -28 -122 -57.5t-38 -79.5q0 -50 31 -69t85 -19q58 0 152 20l17 -92q-101 -22 -168 -23q-64 -2 -111.5 15.5t-71 47t-34 58.5t-10.5 59zM161 484q0 34 24 58t58 24q35 0 58.5 -24t23.5 -58t-24 -58t-58 -24t-58 24 t-24 58z" />
<glyph unicode="&#xc0;" horiz-adv-x="606" d="M4 3l236 628h117l244 -628h-113l-54 142h-268l-51 -142h-111zM139 833l122 -1l94 -167h-102zM199 241h201l-101 278z" />
<glyph unicode="&#xc1;" horiz-adv-x="606" d="M4 3h111l51 142h268l54 -142h113l-244 628h-117zM199 241l100 278l101 -278h-201zM246 665l94 167l122 1l-114 -168h-102z" />
<glyph unicode="&#xc2;" horiz-adv-x="606" d="M4 0h111l51 142h268l54 -142h113l-244 628h-117zM127 664l121 167h102l121 -166h-106l-66 92l-66 -93h-106zM199 238l100 278l101 -278h-201z" />
<glyph unicode="&#xc3;" horiz-adv-x="606" d="M4 0l236 628h117l244 -628h-113l-54 142h-268l-51 -142h-111zM99 674q0 69 37 104.5t86 35.5q38 0 86 -31.5t64 -31.5q23 0 31 14t10 43h71q0 -74 -33.5 -106.5t-81.5 -32.5q-34 0 -82.5 31t-66.5 31q-19 0 -33 -16.5t-16 -40.5h-72zM199 238h201l-101 278z" />
<glyph unicode="&#xc4;" horiz-adv-x="606" d="M4 0l236 628h117l244 -628h-113l-54 142h-268l-51 -142h-111zM117 748q0 28 19 47.5t47 19.5q29 0 49.5 -19.5t20.5 -47.5t-20.5 -47.5t-49.5 -19.5q-28 0 -47 19.5t-19 47.5zM199 238h201l-101 278zM346 748q0 28 19.5 47.5t48.5 19.5q28 0 47.5 -19.5t19.5 -47.5 t-19.5 -47.5t-47.5 -19.5q-29 0 -48.5 19t-19.5 48z" />
<glyph unicode="&#xc5;" horiz-adv-x="606" d="M4 0l232 619q-70 31 -70 105q0 51 38 84.5t95 33.5t94.5 -33.5t37.5 -84.5q0 -37 -19 -64.5t-52 -40.5l241 -619h-113l-54 142h-268l-51 -142h-111zM199 238h201l-101 278zM241 724q0 -26 16.5 -40.5t41.5 -14.5t41 14.5t16 40.5q0 25 -17 39.5t-40 14.5q-22 0 -40 -14 t-18 -40z" />
<glyph unicode="&#xc6;" horiz-adv-x="875" d="M4 0l305 724h512v-97h-279v-196h243v-98h-243v-236h279v-97h-391v189h-233l-78 -189h-115zM237 286h193v340h-52z" />
<glyph unicode="&#xc7;" horiz-adv-x="643" d="M62 356q0 165 90 270.5t261 105.5q93 0 181 -28l-28 -97q-93 23 -156 23q-66 0 -113.5 -23.5t-73 -64.5t-37 -86.5t-11.5 -99.5q0 -53 12.5 -99t39 -84.5t72.5 -61t107 -22.5q81 -1 172 24l22 -94q-73 -26 -161 -30q0 -37 -7 -66t-26 -57.5t-59.5 -45t-99.5 -18.5l-7 76 q32 5 49.5 10t35.5 16.5t25 32.5t7 54q-149 14 -222 112t-73 253z" />
<glyph unicode="&#xc8;" horiz-adv-x="562" d="M92 3v622h416v-96h-303v-157h266v-101h-266v-170h303v-98h-416zM163 833l122 -1l94 -167h-102z" />
<glyph unicode="&#xc9;" horiz-adv-x="562" d="M92 3h416v98h-303v170h266v101h-266v157h303v96h-416v-622zM229 665l94 167l122 1l-114 -168h-102z" />
<glyph unicode="&#xca;" horiz-adv-x="562" d="M92 3h416v98h-303v170h266v101h-266v157h303v96h-416v-622zM131 664l121 167h101l121 -166h-106l-65 92l-66 -93h-106z" />
<glyph unicode="&#xcb;" horiz-adv-x="562" d="M92 0v623h416v-97h-303v-157h266v-101h-266v-170h303v-98h-416zM120 748q0 28 19 47.5t47 19.5q29 0 49 -19.5t20 -47.5t-20 -47.5t-49 -19.5q-28 0 -47 19.5t-19 47.5zM349 748q0 28 19.5 47.5t48.5 19.5q28 0 47.5 -19.5t19.5 -47.5t-19.5 -47.5t-47.5 -19.5 q-29 0 -48.5 19t-19.5 48z" />
<glyph unicode="&#xcc;" horiz-adv-x="424" d="M62 833l121 -1l95 -167h-102zM71 3v89h89v446h-87v90h284v-90h-87v-446h89v-89h-288z" />
<glyph unicode="&#xcd;" horiz-adv-x="423" d="M66 3h288v89h-89v446h87v90h-284v-90h87v-446h-89v-89zM145 665l94 167l122 1l-114 -168h-102z" />
<glyph unicode="&#xce;" horiz-adv-x="423" d="M40 664l120 167h102l121 -166h-106l-65 92l-67 -93h-105zM69 3h288v89h-89v446h87v90h-284v-90h87v-446h-89v-89z" />
<glyph unicode="&#xcf;" horiz-adv-x="423" d="M29 759q0 28 19.5 47.5t47.5 19.5q29 0 49 -19.5t20 -47.5t-20 -47.5t-49 -19.5q-28 0 -47.5 19t-19.5 48zM66 0v89h89v447h-87v89h284v-89h-87v-447h89v-89h-288zM258 759q0 28 19.5 47.5t48.5 19.5q28 0 47.5 -19.5t19.5 -47.5t-19.5 -47.5t-47.5 -19.5q-29 0 -48.5 19 t-19.5 48z" />
<glyph unicode="&#xd0;" horiz-adv-x="708" d="M-6 321v91h99v310q98 4 182 4q177 0 274.5 -101t97.5 -267q0 -163 -94 -262t-263 -99q-51 0 -112.5 1.5t-84.5 1.5v321h-99zM207 96q11 -1 69 -1q130 0 192.5 72t62.5 191q0 129 -65.5 199.5t-201.5 70.5q-17 0 -57 -2v-214h148v-91h-148v-225z" />
<glyph unicode="&#xd1;" horiz-adv-x="711" d="M95 0v625h103l307 -434v434h112v-625h-102l-307 429v-429h-113zM167 673q0 70 36.5 105t85.5 35q38 0 86.5 -31t64.5 -31q23 0 31 14t10 42h71q0 -73 -34 -105.5t-81 -32.5q-35 0 -83 30.5t-66 30.5q-20 0 -34 -16t-15 -41h-72z" />
<glyph unicode="&#xd2;" horiz-adv-x="734" d="M62 316q0 63 18 118.5t53.5 101t95.5 72t138 26.5q77 0 137 -26.5t95.5 -72t53.5 -101t18 -118.5q0 -142 -79 -234.5t-224 -92.5q-147 0 -226.5 92.5t-79.5 234.5zM177 316q0 -62 17.5 -111.5t62 -84.5t110.5 -35q96 0 143.5 67.5t47.5 163.5q0 95 -47 159.5t-144 64.5 q-51 0 -89.5 -20.5t-59.5 -54.5t-31 -71.5t-10 -77.5zM235 833l122 -1l94 -167h-102z" />
<glyph unicode="&#xd3;" horiz-adv-x="734" d="M62 316q0 -142 79.5 -234.5t226.5 -92.5q145 0 224 92.5t79 234.5q0 63 -18 118.5t-53.5 101t-95.5 72t-137 26.5q-78 0 -138 -26.5t-95.5 -72t-53.5 -101t-18 -118.5zM177 316q0 40 10 77.5t31 71.5t59.5 54.5t89.5 20.5q97 0 144 -64.5t47 -159.5q0 -96 -47.5 -163.5 t-143.5 -67.5q-66 0 -110.5 35t-62 84.5t-17.5 111.5zM287 660l94 167h122l-114 -168z" />
<glyph unicode="&#xd4;" horiz-adv-x="734" d="M62 316q0 -142 79.5 -234.5t226.5 -92.5q145 0 224 92.5t79 234.5q0 63 -18 118.5t-53.5 101t-95.5 72t-137 26.5q-78 0 -138 -26.5t-95.5 -72t-53.5 -101t-18 -118.5zM177 316q0 40 10 77.5t31 71.5t59.5 54.5t89.5 20.5q97 0 144 -64.5t47 -159.5q0 -96 -47.5 -163.5 t-143.5 -67.5q-66 0 -110.5 35t-62 84.5t-17.5 111.5zM195 664l121 167h102l121 -166h-107l-65 92l-66 -93h-106z" />
<glyph unicode="&#xd5;" horiz-adv-x="734" d="M62 313q0 63 18 118.5t53.5 101t95.5 72t138 26.5q77 0 137 -26.5t95.5 -72t53.5 -101t18 -118.5q0 -142 -79 -234.5t-224 -92.5q-147 0 -226.5 92.5t-79.5 234.5zM172 673q0 70 36.5 105t85.5 35q38 0 86.5 -31t64.5 -31q23 0 30.5 14t9.5 42h71q0 -73 -33.5 -105.5 t-81.5 -32.5q-34 0 -82.5 30.5t-66.5 30.5q-20 0 -34 -16t-15 -41h-71zM177 313q0 -96 46.5 -163.5t143.5 -67.5q96 0 143.5 67.5t47.5 163.5q0 95 -47 159.5t-144 64.5q-67 0 -111.5 -36t-61.5 -84.5t-17 -103.5z" />
<glyph unicode="&#xd6;" horiz-adv-x="734" d="M62 313q0 63 18 118.5t53.5 101t95.5 72t138 26.5q77 0 137 -26.5t95.5 -72t53.5 -101t18 -118.5q0 -142 -79 -234.5t-224 -92.5q-147 0 -226.5 92.5t-79.5 234.5zM177 313q0 -96 46.5 -163.5t143.5 -67.5q96 0 143.5 67.5t47.5 163.5q0 95 -47 159.5t-144 64.5 q-67 0 -111.5 -36t-61.5 -84.5t-17 -103.5zM186 748q0 29 19.5 48.5t47.5 19.5q29 0 49 -20t20 -48t-20 -47.5t-49 -19.5q-28 0 -47.5 19.5t-19.5 47.5zM415 748q0 29 19.5 48.5t48.5 19.5t48.5 -20t19.5 -48t-20 -47.5t-48 -19.5q-29 0 -48.5 19.5t-19.5 47.5z" />
<glyph unicode="&#xd7;" d="M65 484l63 63l169 -169l165 167l62 -61l-166 -166l168 -169l-64 -63l-167 169l-169 -169l-59 62l166 167z" />
<glyph unicode="&#xd8;" horiz-adv-x="785" d="M32 56l86 86q-54 94 -54 217q0 163 85.5 270.5t246.5 107.5q139 0 227 -91l77 78l53 -52l-84 -85q57 -96 57 -228q0 -160 -88.5 -265.5t-241.5 -105.5q-143 0 -232 94l-79 -79zM177 359q0 -73 24 -134l345 344q-58 69 -151 69q-75 0 -126 -42t-71.5 -102.5t-20.5 -134.5z M240 159q56 -71 155 -71q105 0 161.5 79.5t56.5 191.5q0 79 -27 146z" />
<glyph unicode="&#xd9;" horiz-adv-x="675" d="M85 240v386h114v-377q0 -84 35 -122.5t109 -38.5t104.5 37.5t30.5 123.5v377h113v-386q0 -125 -60 -187t-187 -62q-259 0 -259 249zM203 827h122l94 -167l-102 -1z" />
<glyph unicode="&#xda;" horiz-adv-x="675" d="M85 240q0 -249 259 -249q127 0 187 62t60 187v386h-113v-377q0 -86 -30.5 -123.5t-104.5 -37.5t-109 38.5t-35 122.5v377h-114v-386zM260 660l94 167h122l-114 -168z" />
<glyph unicode="&#xdb;" horiz-adv-x="675" d="M85 237q0 -125 63.5 -186.5t195.5 -61.5q128 0 187.5 61.5t59.5 186.5v387h-113v-378q0 -85 -30.5 -122.5t-104.5 -37.5t-109 38t-35 122v378h-114v-387zM167 655l121 167h102l121 -165h-106l-66 92l-66 -94h-106z" />
<glyph unicode="&#xdc;" horiz-adv-x="675" d="M85 237v387h114v-378q0 -84 35 -122t109 -38t104.5 37.5t30.5 122.5v378h113v-387q0 -125 -59.5 -186.5t-187.5 -61.5q-132 0 -195.5 61.5t-63.5 186.5zM159 749q0 28 19.5 47.5t47.5 19.5q29 0 49 -19.5t20 -47.5t-20 -47.5t-49 -19.5q-28 0 -47.5 19t-19.5 48zM388 749 q0 28 20 47.5t48 19.5t48 -19.5t20 -47.5t-19.5 -47.5t-48.5 -19.5t-48.5 19.5t-19.5 47.5z" />
<glyph unicode="&#xdd;" horiz-adv-x="560" d="M11 625l213 -385v-240h113v240l212 384h-121l-147 -280l-149 281h-121zM216 665l94 167l122 1l-114 -168h-102z" />
<glyph unicode="&#xde;" horiz-adv-x="598" d="M85 0v724h114v-93h104q243 0 243 -193q0 -100 -60.5 -150.5t-173.5 -50.5h-113v-237h-114zM199 331h103q73 0 103 26.5t30 79.5t-32 76.5t-105 23.5h-99v-206z" />
<glyph unicode="&#xdf;" horiz-adv-x="625" d="M90 0v583q0 81 57.5 132.5t154.5 54.5q82 0 137 -37t55 -110q-1 -33 -12 -61.5t-26.5 -47.5t-31 -34.5t-26.5 -29.5t-11 -27q0 -22 14.5 -37t62.5 -49q2 -1 3 -2t3 -2t3.5 -2.5t3.5 -2.5q54 -39 81.5 -81t26.5 -104q-4 -65 -48.5 -110t-147.5 -44q-67 1 -132 20l22 98 q82 -20 115 -20q76 0 83 59q2 32 -12.5 55t-60.5 57q-79 60 -103 88t-24 73q0 26 17 52t38 44.5t38.5 48t18.5 61.5q-2 25 -28 41.5t-65 12.5q-51 -5 -75 -32.5t-24 -65.5v-581h-107z" />
<glyph unicode="&#xe0;" horiz-adv-x="569" d="M40 147q-2 48 16 83.5t49.5 54.5t64.5 28.5t71 11.5l118 6q0 47 -1 52q-1 58 -26.5 76t-87.5 18q-54 0 -155 -19l-15 93q88 22 170 23q45 1 81 -7t59 -19.5t39 -31t24 -35t12 -37.5t4.5 -33t0.5 -28v-230q1 -35 16.5 -48.5t48.5 -17.5l-11 -92q-109 3 -140 63 q-54 -67 -141 -68q-94 -3 -144.5 42.5t-52.5 114.5zM131 840h122l116 -203l-101 -1zM150 153q1 -37 28 -54.5t69 -17.5q74 2 115 58v105q-90 -6 -112 -6q-100 -8 -100 -85z" />
<glyph unicode="&#xe1;" horiz-adv-x="569" d="M40 147q2 -69 52.5 -114.5t144.5 -42.5q87 1 141 68q31 -60 140 -63l11 92q-33 4 -48.5 17.5t-16.5 48.5v230q0 17 -0.5 28t-4.5 33t-12 37.5t-24 35t-39 31t-59 19.5t-81 7q-82 -1 -170 -23l15 -93q101 19 155 19q62 0 87.5 -18t26.5 -76q1 -5 1 -52l-118 -6 q-38 -2 -71 -11.5t-64.5 -28.5t-49.5 -54.5t-16 -83.5zM150 153q0 77 100 85q22 0 112 6v-105q-41 -56 -115 -58q-42 0 -69 17.5t-28 54.5zM188 636l116 204h122l-137 -204h-101z" />
<glyph unicode="&#xe2;" horiz-adv-x="569" d="M40 147q-2 48 16 83.5t49.5 54.5t64.5 28.5t71 11.5l118 6q0 47 -1 52q-1 58 -26.5 76t-87.5 18q-54 0 -155 -19l-15 93q88 22 170 23q45 1 81 -7t59 -19.5t39 -31t24 -35t12 -37.5t4.5 -33t0.5 -28v-230q1 -35 16.5 -48.5t48.5 -17.5l-11 -92q-109 3 -140 63 q-54 -67 -141 -68q-94 -3 -144.5 42.5t-52.5 114.5zM78 639l140 192h102l139 -192h-106l-84 118l-85 -118h-106zM150 153q1 -37 28 -54.5t69 -17.5q74 2 115 58v105q-90 -6 -112 -6q-100 -8 -100 -85z" />
<glyph unicode="&#xe3;" horiz-adv-x="569" d="M40 147q-2 48 16 83.5t49.5 54.5t64.5 28.5t71 11.5l118 6q0 47 -1 52q-1 58 -26.5 76t-87.5 18q-54 0 -155 -19l-15 93q88 22 170 23q45 1 81 -7t59 -19.5t39 -31t24 -35t12 -37.5t4.5 -33t0.5 -28v-230q1 -35 16.5 -48.5t48.5 -17.5l-11 -92q-109 3 -140 63 q-54 -67 -141 -68q-94 -3 -144.5 42.5t-52.5 114.5zM72 670q0 70 36.5 105t85.5 35q38 0 86.5 -31.5t64.5 -31.5q23 0 31 14t10 43h71q0 -74 -34 -106t-81 -32q-35 0 -83 30.5t-66 30.5q-19 0 -33 -16.5t-16 -40.5h-72zM150 153q1 -37 28 -54.5t69 -17.5q74 2 115 58v105 q-90 -6 -112 -6q-100 -8 -100 -85z" />
<glyph unicode="&#xe4;" horiz-adv-x="569" d="M40 147q-2 48 16 83.5t49.5 54.5t64.5 28.5t71 11.5l118 6q0 47 -1 52q-1 58 -26.5 76t-87.5 18q-54 0 -155 -19l-15 93q88 22 170 23q45 1 81 -7t59 -19.5t39 -31t24 -35t12 -37.5t4.5 -33t0.5 -28v-230q1 -35 16.5 -48.5t48.5 -17.5l-11 -92q-109 3 -140 63 q-54 -67 -141 -68q-94 -3 -144.5 42.5t-52.5 114.5zM93 726q0 28 19 47.5t47 19.5q29 0 49 -19.5t20 -47.5t-20 -47.5t-49 -19.5q-28 0 -47 19.5t-19 47.5zM150 153q1 -37 28 -54.5t69 -17.5q74 2 115 58v105q-90 -6 -112 -6q-100 -8 -100 -85zM321 726q0 28 20 47.5 t48 19.5t48 -19.5t20 -47.5t-19.5 -47.5t-48.5 -19.5t-48.5 19.5t-19.5 47.5z" />
<glyph unicode="&#xe5;" horiz-adv-x="569" d="M40 147q-2 48 16 83.5t49.5 54.5t64.5 28.5t71 11.5l118 6q0 47 -1 52q-1 58 -26.5 76t-87.5 18q-54 0 -155 -19l-15 93q88 22 170 23q45 1 81 -7t59 -19.5t39 -31t24 -35t12 -37.5t4.5 -33t0.5 -28v-230q1 -35 16.5 -48.5t48.5 -17.5l-11 -92q-109 3 -140 63 q-54 -67 -141 -68q-94 -3 -144.5 42.5t-52.5 114.5zM136 743q0 50 38 83.5t95 33.5t94.5 -33.5t37.5 -83.5q0 -53 -37 -86t-95 -33q-57 0 -95 33t-38 86zM150 153q1 -37 28 -54.5t69 -17.5q74 2 115 58v105q-90 -6 -112 -6q-100 -8 -100 -85zM211 743q0 -27 17 -41.5 t42 -14.5q24 0 40 14.5t16 41.5q0 25 -16.5 39t-39.5 14t-41 -14t-18 -39z" />
<glyph unicode="&#xe6;" horiz-adv-x="857" d="M40 147q-2 46 15.5 80.5t48.5 54t64.5 29t70.5 11.5l117 7v48q-1 61 -26 80.5t-88 19.5q-57 0 -158 -19l-15 93q86 22 173 23q135 1 184 -72q59 70 173 70q95 0 153.5 -63t59.5 -192l-1 -58l-353 -7q1 -82 45 -125t125 -43q74 0 149 17l16 -90q-73 -22 -170 -22 q-146 0 -211 87l-20 -23q-61 -63 -163 -63q-95 -1 -141 44.5t-48 112.5zM150 153q0 -72 87 -72q86 2 123 58v106q-112 -7 -113 -7q-97 -7 -97 -85zM462 337l246 7q-5 138 -113 138q-63 1 -94.5 -37.5t-38.5 -107.5z" />
<glyph unicode="&#xe7;" horiz-adv-x="519" d="M56 285q2 124 75 206t206 82q67 0 142 -19l-19 -95q-63 14 -120 14q-83 -1 -128 -54.5t-47 -133.5q0 -40 8.5 -73t27 -62.5t53.5 -46t84 -16.5q57 0 128 15l14 -96q-55 -14 -112 -17q0 -37 -7 -66.5t-26 -58t-59.5 -45t-99.5 -18.5l-7 76q32 4 49.5 9t35.5 16.5 t25.5 33.5t6.5 56q-230 23 -230 293z" />
<glyph unicode="&#xe8;" horiz-adv-x="572" d="M56 285q0 124 61 205.5t191 81.5q93 0 152 -62t60 -190l-1 -59h-354q2 -84 46 -130.5t126 -46.5q68 0 151 19l17 -91q-74 -25 -173 -25q-276 0 -276 298zM164 840h122l116 -203l-100 -1zM170 347h247q-5 137 -114 137q-60 1 -92.5 -35.5t-40.5 -101.5z" />
<glyph unicode="&#xe9;" horiz-adv-x="572" d="M56 285q0 -298 276 -298q99 0 173 25l-17 91q-83 -19 -151 -19q-82 0 -126 46.5t-46 130.5h354l1 59q-1 128 -60 190t-152 62q-130 0 -191 -81.5t-61 -205.5zM170 347q8 65 40.5 101.5t92.5 35.5q109 0 114 -137h-247zM218 636l116 204h122l-137 -204h-101z" />
<glyph unicode="&#xea;" horiz-adv-x="572" d="M56 285q0 124 61 205.5t191 81.5q93 0 152 -62t60 -190l-1 -59h-354q2 -84 46 -130.5t126 -46.5q68 0 151 19l17 -91q-74 -25 -173 -25q-276 0 -276 298zM115 648l140 192h101l140 -192h-107l-83 118l-85 -118h-106zM170 347h247q-5 137 -114 137q-60 1 -92.5 -35.5 t-40.5 -101.5z" />
<glyph unicode="&#xeb;" horiz-adv-x="572" d="M56 285q0 124 61 205.5t191 81.5q93 0 152 -62t60 -190l-1 -59h-354q2 -84 46 -130.5t126 -46.5q68 0 151 19l17 -91q-74 -25 -173 -25q-276 0 -276 298zM125 726q0 28 19.5 47.5t47.5 19.5q29 0 49 -19.5t20 -47.5t-20 -47.5t-49 -19.5q-28 0 -47.5 19.5t-19.5 47.5z M170 347h247q-5 137 -114 137q-60 1 -92.5 -35.5t-40.5 -101.5zM354 726q0 28 19.5 47.5t48.5 19.5q28 0 47.5 -19.5t19.5 -47.5t-19.5 -47.5t-47.5 -19.5q-29 0 -48.5 19t-19.5 48z" />
<glyph unicode="&#xec;" horiz-adv-x="301" d="M-21 840h122l117 -203l-101 -1zM105 0v560h110v-560h-110z" />
<glyph unicode="&#xed;" horiz-adv-x="301" d="M78 636l116 204h122l-137 -204h-101zM86 0h111v560h-111v-560z" />
<glyph unicode="&#xee;" horiz-adv-x="301" d="M-40 639l140 192h102l140 -192h-107l-84 118l-84 -118h-107zM95 0v560h111v-560h-111z" />
<glyph unicode="&#xef;" horiz-adv-x="290" d="M-34 748q0 29 19 48.5t47 19.5q29 0 49 -19.5t20 -48.5q0 -28 -20 -47.5t-49 -19.5q-28 0 -47 19.5t-19 47.5zM94 0v560h110v-560h-110zM195 748q0 29 19.5 48.5t48.5 19.5q28 0 47.5 -20t19.5 -48t-19.5 -47.5t-47.5 -19.5q-29 0 -48.5 19.5t-19.5 47.5z" />
<glyph unicode="&#xf0;" d="M56 245q3 92 67 156t182 63q39 -2 70 -13l-8 -88q-35 11 -65 11q-68 0 -105 -38.5t-39 -96.5q-1 -66 30 -110.5t104 -44.5q47 0 80 23t47.5 61.5t19.5 75.5t3 77q-2 94 -23 155.5t-71 105.5l-62 -68l-43 38l58 64q-46 27 -105 47l31 85q81 -21 140 -61l69 75l42 -41 l-65 -71q126 -116 128 -336q0 -22 -1.5 -42t-7 -54.5t-15.5 -63t-28.5 -60.5t-44 -53.5t-64.5 -36t-88 -14.5q-119 0 -179 74.5t-57 180.5z" />
<glyph unicode="&#xf1;" horiz-adv-x="642" d="M92 0v563h111v-47q81 57 163 58q40 1 71 -7.5t50.5 -20.5t33.5 -33t20.5 -36.5t9.5 -41t3.5 -36t0.5 -31.5v-368h-112v358q0 66 -20 92t-64 26q-76 0 -156 -55v-421h-111zM134 670q0 70 36.5 105t85.5 35q38 0 86.5 -31.5t64.5 -31.5q23 0 31 14t10 43h70 q0 -74 -33.5 -106t-80.5 -32q-35 0 -83 30.5t-66 30.5q-19 0 -33 -16.5t-16 -40.5h-72z" />
<glyph unicode="&#xf2;" horiz-adv-x="633" d="M56 281q0 126 66.5 208.5t194.5 83.5q128 -1 194 -83.5t66 -208.5q0 -60 -14 -110.5t-44 -91.5t-81.5 -65t-121.5 -24q-68 1 -119.5 24.5t-81.5 64.5t-44.5 91.5t-14.5 110.5zM163 281q0 -85 38.5 -140t115.5 -55q80 1 116 55.5t36 139.5q-1 80 -38 138t-115 58 q-76 -1 -114.5 -59t-38.5 -137zM180 840h122l116 -203l-100 -1z" />
<glyph unicode="&#xf3;" horiz-adv-x="633" d="M56 281q0 -60 14.5 -110.5t44.5 -91.5t81.5 -64.5t119.5 -24.5q70 0 121.5 24t81.5 65t44 91.5t14 110.5q0 126 -66 208.5t-194 83.5q-128 -1 -194.5 -83.5t-66.5 -208.5zM163 281q0 79 38.5 137t114.5 59q78 0 115 -58t38 -138q0 -85 -36 -139.5t-116 -55.5 q-77 0 -115.5 55t-38.5 140zM241 636l117 204h122l-138 -204h-101z" />
<glyph unicode="&#xf4;" horiz-adv-x="633" d="M56 281q0 126 66.5 208.5t194.5 83.5q128 -1 194 -83.5t66 -208.5q0 -60 -14 -110.5t-44 -91.5t-81.5 -65t-121.5 -24q-68 1 -119.5 24.5t-81.5 64.5t-44.5 91.5t-14.5 110.5zM134 639l140 192h102l140 -192h-107l-84 118l-84 -118h-107zM163 281q0 -85 38.5 -140 t115.5 -55q80 1 116 55.5t36 139.5q-1 80 -38 138t-115 58q-76 -1 -114.5 -59t-38.5 -137z" />
<glyph unicode="&#xf5;" horiz-adv-x="633" d="M56 281q0 126 66.5 208.5t194.5 83.5q128 -1 194 -83.5t66 -208.5q0 -60 -14 -110.5t-44 -91.5t-81.5 -65t-121.5 -24q-68 1 -119.5 24.5t-81.5 64.5t-44.5 91.5t-14.5 110.5zM121 670q0 70 36.5 105t85.5 35q38 0 86.5 -31.5t64.5 -31.5q23 0 30.5 14t9.5 43h71 q0 -74 -33.5 -106t-81.5 -32q-34 0 -82.5 30.5t-66.5 30.5q-19 0 -33 -16.5t-16 -40.5h-71zM163 281q0 -85 38.5 -140t115.5 -55q80 1 116 55.5t36 139.5q-1 80 -38 138t-115 58q-76 -1 -114.5 -59t-38.5 -137z" />
<glyph unicode="&#xf6;" horiz-adv-x="633" d="M56 281q0 126 66.5 208.5t194.5 83.5q128 -1 194 -83.5t66 -208.5q0 -60 -14 -110.5t-44 -91.5t-81.5 -65t-121.5 -24q-68 1 -119.5 24.5t-81.5 64.5t-44.5 91.5t-14.5 110.5zM135 726q0 28 19 47.5t47 19.5q29 0 49 -19.5t20 -47.5t-20 -47.5t-49 -19.5q-28 0 -47 19.5 t-19 47.5zM163 281q0 -85 38.5 -140t115.5 -55q80 1 116 55.5t36 139.5q-1 80 -38 138t-115 58q-76 -1 -114.5 -59t-38.5 -137zM363 726q0 28 20 47.5t49 19.5q28 0 47.5 -19.5t19.5 -47.5t-19.5 -47.5t-47.5 -19.5q-29 0 -49 19.5t-20 47.5z" />
<glyph unicode="&#xf7;" d="M47 277v86h497v-86h-497zM224 129q0 29 20.5 49.5t50.5 20.5t50.5 -20.5t20.5 -49.5q0 -30 -20.5 -50.5t-50.5 -20.5t-50.5 20.5t-20.5 50.5zM224 517q0 29 20.5 50t50.5 21t50.5 -21t20.5 -50q0 -30 -20.5 -50t-50.5 -20t-50.5 20t-20.5 50z" />
<glyph unicode="&#xf8;" horiz-adv-x="633" d="M24 43l69 69q-38 70 -38 169q0 126 66.5 208.5t194.5 83.5q107 0 175 -66l74 74l50 -47l-81 -80q42 -71 42 -173q0 -60 -14 -110.5t-44 -91.5t-81.5 -65t-121.5 -24q-114 1 -180 67l-62 -62zM162 281q0 -47 12 -88l242 240q-39 44 -101 44q-76 -1 -114.5 -59t-38.5 -137z M209 131q40 -45 107 -45q80 1 116 55.5t36 139.5q-2 54 -15 92z" />
<glyph unicode="&#xf9;" horiz-adv-x="624" d="M86 182v381h109v-365q0 -67 20.5 -91t64.5 -25q79 -3 144 54v427h108v-563h-108v41q-60 -52 -139 -52q-56 -1 -96.5 16t-59.5 38.5t-29.5 53.5t-12 48t-1.5 37zM169 840h122l116 -203l-101 -1z" />
<glyph unicode="&#xfa;" horiz-adv-x="624" d="M86 182q0 -21 1.5 -37t12 -48t29.5 -53.5t59.5 -38.5t96.5 -16q79 0 139 52v-41h108v563h-108v-427q-65 -57 -144 -54q-44 1 -64.5 25t-20.5 91v365h-109v-381zM224 636l117 204h121l-137 -204h-101z" />
<glyph unicode="&#xfb;" horiz-adv-x="624" d="M86 182v381h109v-365q0 -67 20.5 -91t64.5 -25q79 -3 144 54v427h108v-563h-108v41q-60 -52 -139 -52q-56 -1 -96.5 16t-59.5 38.5t-29.5 53.5t-12 48t-1.5 37zM119 639l140 192h102l139 -192h-106l-84 118l-85 -118h-106z" />
<glyph unicode="&#xfc;" horiz-adv-x="624" d="M86 182v381h109v-365q0 -67 20.5 -91t64.5 -25q79 -3 144 54v427h108v-563h-108v41q-60 -52 -139 -52q-56 -1 -96.5 16t-59.5 38.5t-29.5 53.5t-12 48t-1.5 37zM134 748q0 29 19.5 48.5t47.5 19.5q29 0 49 -20t20 -48t-20 -47.5t-49 -19.5q-28 0 -47.5 19.5t-19.5 47.5z M363 748q0 29 19.5 48.5t48.5 19.5t48.5 -20t19.5 -48t-20 -47.5t-48 -19.5q-29 0 -48.5 19.5t-19.5 47.5z" />
<glyph unicode="&#xfd;" horiz-adv-x="567" d="M18 563l213 -533l-85 -214h114l287 747h-119q-12 -36 -74.5 -207t-69.5 -190l-143 397h-123zM209 636l116 204h122l-137 -204h-101z" />
<glyph unicode="&#xfe;" horiz-adv-x="632" d="M92 -185v946h111v-243q62 55 147 55q111 0 167.5 -78t54.5 -208q-1 -56 -14.5 -106t-42 -94t-79 -70.5t-118.5 -27.5q-61 -1 -115 14v-188h-111zM203 101q64 -16 103 -15q77 1 115.5 57.5t42.5 143.5q4 85 -28.5 138t-103.5 53q-66 0 -129 -55v-322z" />
<glyph unicode="&#xff;" horiz-adv-x="567" d="M18 563h123l143 -397q7 19 69.5 190t74.5 207h119l-287 -747h-114l85 214zM105 734q0 28 19.5 47.5t47.5 19.5q29 0 49 -19.5t20 -47.5t-20 -47.5t-49 -19.5q-28 0 -47.5 19.5t-19.5 47.5zM334 734q0 28 19.5 47.5t48.5 19.5q28 0 47.5 -19.5t19.5 -47.5t-19.5 -47.5 t-47.5 -19.5q-29 0 -48.5 19t-19.5 48z" />
<glyph unicode="&#x152;" horiz-adv-x="1004" d="M62 356q0 79 17.5 145t53 119t97 82.5t143.5 29.5q118 0 186 -70v62h391v-97h-279v-205h243v-98h-243v-227h279v-97h-391v57q-69 -71 -186 -71q-152 0 -231.5 104t-79.5 266zM177 356q0 -75 17 -133t62.5 -98.5t115.5 -40.5q186 0 186 272q0 278 -186 278 q-55 0 -94.5 -23t-60.5 -64t-30.5 -88t-9.5 -103z" />
<glyph unicode="&#x153;" horiz-adv-x="985" d="M56 281q0 81 27 145t87.5 105t146.5 42q136 0 203 -100q63 99 201 99q93 0 152 -62t60 -190l-2 -59h-352v-28q8 -71 52 -110t119 -39q68 0 151 19l17 -91q-74 -25 -173 -25q-155 0 -224 100q-64 -97 -204 -97q-68 1 -119.5 24.5t-82 64.5t-45 92t-14.5 110zM164 281 q0 -85 38.5 -140t115.5 -55q77 1 113.5 52.5t37.5 133.5v27q-5 75 -42 126.5t-110 51.5q-77 -1 -115 -59t-38 -137zM582 347h248q-5 137 -114 137q-60 1 -92.5 -35.5t-41.5 -101.5z" />
<glyph unicode="&#x178;" horiz-adv-x="560" d="M11 625h121l149 -281l147 280h121l-212 -384v-240h-113v240zM100 754q0 28 19.5 47.5t47.5 19.5q29 0 49 -19.5t20 -47.5t-20 -47.5t-49 -19.5t-48 19.5t-19 47.5zM329 754q0 28 19.5 47.5t48.5 19.5q28 0 47.5 -19.5t19.5 -47.5t-19.5 -47.5t-47.5 -19.5q-29 0 -48.5 19 t-19.5 48z" />
<glyph unicode="&#x192;" horiz-adv-x="412" d="M-30 -180l9 92q39 -2 59 0q43 5 58 31t16 83v443h-96v88h96v28q0 87 47 137t143 52q47 0 110 -9l-10 -90q-76 9 -108 6q-77 -6 -77 -97v-27h156v-88h-156v-473q0 -176 -178 -180q-32 -2 -69 4z" />
<glyph unicode="&#x2c6;" horiz-adv-x="471" d="M45 639l140 192h102l139 -192h-106l-84 118l-85 -118h-106z" />
<glyph unicode="&#x2dc;" horiz-adv-x="474" d="M45 664q0 70 36.5 105t85.5 35q38 0 86.5 -31.5t64.5 -31.5q23 0 31 14t10 43h70q0 -74 -33.5 -106.5t-80.5 -32.5q-35 0 -83 31t-66 31q-19 0 -33 -16.5t-16 -40.5h-72z" />
<glyph unicode="&#x2013;" horiz-adv-x="600" d="M64 283v77h472v-77h-472z" />
<glyph unicode="&#x2014;" horiz-adv-x="778" d="M64 283v77h650v-77h-650z" />
<glyph unicode="&#x2018;" horiz-adv-x="221" d="M36 554q2 48 31 110.5t83 121.5l51 -23q-47 -100 -30 -201q6 -35 -11.5 -59.5t-47.5 -26.5q-35 -2 -56 19t-20 59z" />
<glyph unicode="&#x2019;" horiz-adv-x="222" d="M18 487q47 100 30 201q-6 35 11.5 59.5t47.5 26.5q35 2 56 -19t20 -59q-2 -48 -31 -110.5t-83 -121.5z" />
<glyph unicode="&#x201a;" horiz-adv-x="269" d="M37 -135q47 100 30 201q-6 35 11.5 59.5t47.5 26.5q35 2 56 -19t20 -59q-2 -48 -31 -110.5t-83 -121.5z" />
<glyph unicode="&#x201c;" horiz-adv-x="424" d="M33 559q2 48 31 110.5t83 121.5l51 -23q-47 -100 -30 -201q6 -35 -11.5 -59.5t-47.5 -26.5q-35 -2 -56 19t-20 59zM235 560q2 48 31 110.5t83 121.5l51 -23q-47 -100 -30 -201q6 -35 -11.5 -59.5t-47.5 -26.5q-35 -2 -56 19t-20 59z" />
<glyph unicode="&#x201d;" horiz-adv-x="427" d="M43 482q47 100 30 201q-6 35 11.5 59.5t47.5 26.5q35 2 56 -19t20 -59q-2 -48 -31 -110.5t-83 -121.5zM247 482q47 100 30 201q-6 35 11.5 59.5t47.5 26.5q35 2 56 -19t20 -59q-2 -48 -31 -110.5t-83 -121.5z" />
<glyph unicode="&#x201e;" horiz-adv-x="427" d="M14 -141q47 100 30 201q-6 35 11.5 59.5t47.5 26.5q35 2 56 -19t20 -59q-2 -48 -31 -110.5t-83 -121.5zM218 -141q47 100 30 201q-6 35 11.5 59.5t47.5 26.5q35 2 56 -19t20 -59q-2 -48 -31 -110.5t-83 -121.5z" />
<glyph unicode="&#x2020;" horiz-adv-x="557" d="M50 447v72l189 -3v209h76v-209l191 3v-72l-191 3v-517h-76v517z" />
<glyph unicode="&#x2021;" horiz-adv-x="557" d="M50 123v72l189 -4v259l-189 -3v72l189 -3v209h76v-209l191 3v-72l-191 3v-259l191 4v-72l-191 3v-215h-76v215z" />
<glyph unicode="&#x2022;" horiz-adv-x="462" d="M56 335q0 74 50.5 125t124.5 51q72 0 123.5 -51.5t51.5 -124.5t-51.5 -123.5t-123.5 -50.5q-74 0 -124.5 50t-50.5 124z" />
<glyph unicode="&#x2026;" horiz-adv-x="970" d="M95 60q0 35 24.5 59.5t59.5 24.5t60 -24.5t25 -59.5q0 -36 -25 -60.5t-60 -24.5t-59.5 24.5t-24.5 60.5zM399 60q0 35 24.5 59.5t59.5 24.5t60 -24.5t25 -59.5q0 -36 -25 -60.5t-60 -24.5t-59.5 24.5t-24.5 60.5zM703 60q0 35 24.5 59.5t60.5 24.5q34 0 59 -25t25 -59 q0 -36 -24.5 -60.5t-59.5 -24.5q-36 0 -60.5 24.5t-24.5 60.5z" />
<glyph unicode="&#x2030;" horiz-adv-x="1045" d="M49 558q0 71 42 119t116 49q74 0 116 -48t42 -120q0 -74 -41 -122.5t-117 -48.5q-76 1 -117 49.5t-41 121.5zM68 105l552 553l42 -43l-553 -553zM131 558q0 -98 77 -98q78 0 78 98q0 42 -19 70t-60 28q-76 0 -76 -98zM360 160q0 72 42 119.5t116 48.5q74 0 116 -48 t42 -120q0 -74 -41 -122.5t-117 -48.5q-75 1 -116.5 49.5t-41.5 121.5zM443 160q0 -98 77 -98q77 1 77 98q0 43 -18.5 70.5t-59.5 27.5q-76 0 -76 -98zM715 160q0 72 41.5 119.5t116.5 48.5q74 0 116 -48t42 -120q0 -74 -41 -122.5t-117 -48.5q-76 1 -117 49.5t-41 121.5z M797 160q0 -98 78 -98q40 1 58.5 27.5t18.5 70.5q0 42 -19 70t-60 28q-76 0 -76 -98z" />
<glyph unicode="&#x2039;" horiz-adv-x="291" d="M30 299l141 206h107l-144 -206l143 -202h-111z" />
<glyph unicode="&#x203a;" horiz-adv-x="293" d="M14 97l145 202l-144 206h107l141 -206l-136 -202h-113z" />
<glyph unicode="&#x2044;" horiz-adv-x="794" d="M-9 17l753 753l53 -65l-753 -753z" />
<glyph unicode="&#x20ac;" d="M1 325l8 75h88q10 99 61.5 170t125 103.5t159.5 32.5q65 0 128 -15l-19 -93q-64 10 -110 10q-58 0 -102.5 -18t-71.5 -49t-42 -66t-20 -75h323l-8 -75h-316q10 -108 74 -171.5t169 -65.5q67 0 116 10l22 -95q-58 -13 -137 -13q-166 1 -255.5 96.5t-98.5 238.5h-94z" />
<glyph unicode="&#x2122;" horiz-adv-x="807" d="M45 666v60h294v-60h-111v-274h-70v274h-113zM376 392l27 337h74l86 -217l85 217h75l29 -337h-68l-18 233l-70 -186h-67l-70 187l-16 -234h-67z" />
<glyph unicode="&#xe000;" horiz-adv-x="565" d="M0 0v565h565v-565h-565z" />
</font>
</defs>
</svg>
